<?xml version="1.0" encoding="utf-8"?>
<!-- Generator: Adobe Illustrator 18.1.1, SVG Export Plug-In . SVG Version: 6.00 Build 0)  -->
<!DOCTYPE svg PUBLIC "-//W3C//DTD SVG 1.1//EN" "http://www.w3.org/Graphics/SVG/1.1/DTD/svg11.dtd">
<svg version="1.1" id="Layer_1" xmlns="http://www.w3.org/2000/svg" xmlns:xlink="http://www.w3.org/1999/xlink" x="0px" y="0px"
	 viewBox="0 0 294.3 68" enable-background="new 0 0 294.3 68" xml:space="preserve">
<g>
	<g>
		<g>
			<g>
				<path fill="#EF7575" stroke="#EF7575" stroke-width="0.8631" stroke-miterlimit="10" d="M60.6,39.4c1,1,1.3,2.3,1.1,3.9l0,0
					l-1.1,6.5c-0.1,0.7-0.4,1.4-0.7,2c-0.4,0.7-0.8,1.2-1.4,1.7c-0.6,0.5-1.2,0.9-1.9,1.2c-0.7,0.3-1.4,0.5-2.1,0.5l-10.3,0.5
					l5.2-31.3l10.3-0.5c0.7,0,1.4,0.1,1.9,0.3c0.6,0.2,1.1,0.6,1.5,1c0.4,0.4,0.7,1,0.8,1.6c0.2,0.6,0.2,1.3,0.1,2L63,35.4
					c-0.1,0.8-0.4,1.5-0.8,2.2C61.8,38.3,61.2,38.9,60.6,39.4z M55.4,50l1.3-7.8l-5.2,0.2l-1.3,7.8L55.4,50z M57.6,36.9l1.3-7.8
					l-5.2,0.2l-1.3,7.8L57.6,36.9z"/>
				<path fill="#EF7575" stroke="#EF7575" stroke-width="0.8631" stroke-miterlimit="10" d="M74.5,54.3l-12.3,0.5l5.2-31.3l5.2-0.2
					l-4.4,26.1l5.2-0.2l1.9-0.1L74.5,54.3z"/>
				<path fill="#EF7575" stroke="#EF7575" stroke-width="0.8631" stroke-miterlimit="10" d="M96.5,27.4L93,48.3
					c-0.1,0.7-0.4,1.4-0.7,2c-0.4,0.7-0.8,1.2-1.4,1.7c-0.5,0.5-1.2,0.9-1.8,1.2c-0.7,0.3-1.4,0.5-2.1,0.5L81.8,54
					c-0.7,0-1.4-0.1-2-0.3c-0.6-0.2-1.1-0.6-1.4-1c-0.4-0.4-0.7-1-0.8-1.6c-0.2-0.6-0.2-1.3-0.1-2L81,28.1c0.1-0.7,0.4-1.4,0.7-2
					c0.4-0.7,0.8-1.2,1.4-1.7c0.5-0.5,1.1-0.9,1.8-1.2c0.7-0.3,1.4-0.5,2.1-0.5l5.2-0.2c0.7,0,1.4,0.1,1.9,0.3
					c0.6,0.2,1.1,0.6,1.5,1c0.4,0.5,0.7,1,0.8,1.6C96.6,26.1,96.6,26.7,96.5,27.4z M87.8,48.5l3.5-20.9l-5.2,0.2l-3.5,20.9
					L87.8,48.5z"/>
				<path fill="#EF7575" stroke="#EF7575" stroke-width="0.8631" stroke-miterlimit="10" d="M113,35.8l-2,11.7
					c-0.1,0.7-0.4,1.4-0.7,2.1c-0.4,0.6-0.8,1.2-1.4,1.7c-0.6,0.5-1.2,0.9-1.9,1.2c-0.7,0.3-1.4,0.5-2.1,0.5l-5.2,0.2
					c-0.7,0-1.4-0.1-1.9-0.3c-0.6-0.2-1.1-0.6-1.5-1c-0.4-0.4-0.7-1-0.8-1.6c-0.2-0.6-0.2-1.3-0.1-2L99,27.3c0.1-0.7,0.4-1.4,0.7-2
					c0.4-0.7,0.8-1.2,1.4-1.7c0.5-0.5,1.2-0.9,1.8-1.2c0.7-0.3,1.4-0.5,2.1-0.5l5.2-0.2c0.7,0,1.4,0.1,1.9,0.3
					c0.6,0.2,1.1,0.6,1.5,1c0.4,0.4,0.7,1,0.8,1.6c0.2,0.6,0.2,1.3,0.1,2l-0.7,3.9l-5.2,0.2l0.7-3.9l-5.2,0.2L100.7,48l5.2-0.2
					l1.1-6.5l-1.9,0.1l0.9-5.2L113,35.8z"/>
				<path fill="#EF7575" stroke="#EF7575" stroke-width="0.8631" stroke-miterlimit="10" d="M131,35l-2,11.7
					c-0.1,0.7-0.4,1.4-0.7,2.1c-0.4,0.6-0.8,1.2-1.4,1.7c-0.6,0.5-1.2,0.9-1.9,1.2c-0.7,0.3-1.4,0.5-2.1,0.5l-5.2,0.2
					c-0.7,0-1.4-0.1-1.9-0.3c-0.6-0.2-1.1-0.6-1.5-1c-0.4-0.4-0.7-1-0.8-1.6c-0.2-0.6-0.2-1.3-0.1-2l3.5-20.9c0.1-0.7,0.4-1.4,0.7-2
					c0.4-0.7,0.8-1.2,1.4-1.7c0.5-0.5,1.2-0.9,1.8-1.2c0.7-0.3,1.4-0.5,2.1-0.5l5.2-0.2c0.7,0,1.4,0.1,1.9,0.3
					c0.6,0.2,1.1,0.6,1.5,1c0.4,0.4,0.7,1,0.8,1.6c0.2,0.6,0.2,1.3,0.1,2l-0.7,3.9l-5.2,0.2l0.7-3.9l-5.2,0.2l-3.5,20.9l5.2-0.2
					l1.1-6.5l-1.9,0.1l0.9-5.2L131,35z"/>
				<path fill="#EF7575" stroke="#EF7575" stroke-width="0.8631" stroke-miterlimit="10" d="M143.9,46.1l-0.9,5.2l-7.1,0.3
					c-0.7,0-1.4-0.1-1.9-0.3c-0.6-0.2-1.1-0.6-1.5-1c-0.4-0.4-0.7-1-0.8-1.6c-0.2-0.6-0.2-1.3-0.1-2l2.4-14.4l1.1-6.5
					c0.1-0.7,0.4-1.4,0.7-2c0.4-0.7,0.8-1.2,1.4-1.7c0.5-0.5,1.2-0.9,1.8-1.2c0.7-0.3,1.4-0.5,2.1-0.5l5.2-0.2l1.9-0.1l-0.9,5.2
					l-7.1,0.3l-1.3,7.8l5.2-0.2L146,33l-0.9,5.3l-7.1,0.3l-1.3,7.8l5.2-0.2L143.9,46.1z"/>
				<path fill="#EF7575" stroke="#EF7575" stroke-width="0.8631" stroke-miterlimit="10" d="M161.7,34.9c0.5,0.5,0.8,1,1,1.7
					c0.2,0.7,0.2,1.4,0.1,2.2l-2,11.7l-5.2,0.2l2-11.7c0.1-0.4,0-0.7-0.2-0.9c-0.2-0.2-0.5-0.3-0.8-0.3l-3.9,0.2l-2.2,13l-5.2,0.2
					l5.2-31.3l10.3-0.5c0.7,0,1.4,0.1,1.9,0.3c0.6,0.2,1.1,0.6,1.5,1c0.4,0.4,0.7,1,0.8,1.6c0.2,0.6,0.2,1.3,0.1,2l-1.1,6.5
					c-0.1,0.8-0.4,1.5-0.8,2.2C162.9,33.8,162.3,34.4,161.7,34.9z M158.7,32.4l1.3-7.8l-5.2,0.2l-1.3,7.8L158.7,32.4z"/>
				<path fill="#EF7575" stroke="#EF7575" stroke-width="0.8631" stroke-miterlimit="10" d="M175.4,39.5l-9-7.4l1.3-7.8
					c0.1-0.7,0.4-1.4,0.7-2c0.4-0.7,0.8-1.2,1.4-1.7c0.5-0.5,1.1-0.9,1.8-1.2c0.7-0.3,1.4-0.5,2.1-0.5l5.2-0.2
					c0.7,0,1.4,0.1,1.9,0.3c0.6,0.2,1.1,0.6,1.5,1c0.4,0.5,0.7,1,0.8,1.6c0.2,0.6,0.2,1.3,0.1,2l-0.7,3.9l-5.2,0.2l0.7-3.9l-5.2,0.2
					l-0.9,5.2l9,7.4l-1.3,7.8c-0.1,0.7-0.4,1.4-0.7,2.1c-0.4,0.6-0.8,1.2-1.4,1.7c-0.5,0.5-1.2,0.9-1.8,1.2
					c-0.7,0.3-1.4,0.5-2.1,0.5l-5.2,0.2c-0.7,0-1.4-0.1-2-0.3c-0.6-0.2-1.1-0.6-1.4-1c-0.4-0.4-0.7-1-0.8-1.6
					c-0.2-0.6-0.2-1.3-0.1-2l0.7-3.9l5.2-0.2l-0.7,3.9l5.2-0.2L175.4,39.5z"/>
				<path fill="#EF7575" stroke="#EF7575" stroke-width="0.8631" stroke-miterlimit="10" d="M208.6,31.5l-2,11.7
					c-0.1,0.7-0.4,1.4-0.7,2.1c-0.4,0.6-0.8,1.2-1.4,1.7c-0.6,0.5-1.2,0.9-1.9,1.2c-0.7,0.3-1.4,0.5-2.1,0.5l-5.2,0.2
					c-0.7,0-1.4-0.1-1.9-0.3c-0.6-0.2-1.1-0.6-1.5-1c-0.4-0.4-0.7-1-0.8-1.6c-0.2-0.6-0.2-1.3-0.1-2l3.5-20.9c0.1-0.7,0.4-1.4,0.7-2
					c0.4-0.7,0.8-1.2,1.4-1.7c0.5-0.5,1.2-0.9,1.8-1.2c0.7-0.3,1.4-0.5,2.1-0.5l5.2-0.2c0.7,0,1.4,0.1,1.9,0.3
					c0.6,0.2,1.1,0.6,1.5,1c0.4,0.4,0.7,1,0.8,1.6c0.2,0.6,0.2,1.3,0.1,2l-0.7,3.9l-5.2,0.2l0.7-3.9l-5.2,0.2l-3.5,20.9l5.2-0.2
					l1.1-6.5l-1.9,0.1l0.9-5.2L208.6,31.5z"/>
				<path fill="#EF7575" stroke="#EF7575" stroke-width="0.8631" stroke-miterlimit="10" d="M218.6,16.9l-5.2,31.3l-5.2,0.2
					l5.2-31.3L218.6,16.9z"/>
				<path fill="#EF7575" stroke="#EF7575" stroke-width="0.8631" stroke-miterlimit="10" d="M236.7,16.1l-10.4,31.5l-5.2,0.2
					l0.1-31.1l5.2-0.2l0,15.1l5.1-15.4L236.7,16.1z"/>
				<path fill="#EF7575" stroke="#EF7575" stroke-width="0.8631" stroke-miterlimit="10" d="M246.9,41.5l-0.9,5.2l-7.1,0.3
					c-0.7,0-1.4-0.1-1.9-0.3c-0.6-0.2-1.1-0.6-1.5-1c-0.4-0.4-0.7-1-0.8-1.6s-0.2-1.3-0.1-2l2.4-14.3l1.1-6.5c0.1-0.7,0.4-1.4,0.7-2
					s0.8-1.2,1.4-1.7c0.5-0.5,1.2-0.9,1.8-1.2c0.7-0.3,1.4-0.5,2.1-0.5l5.2-0.2l1.9-0.1l-0.9,5.2l-7.1,0.3l-1.3,7.8l5.2-0.2l1.9-0.1
					l-0.9,5.3l-7.1,0.3l-1.3,7.8l5.2-0.2L246.9,41.5z"/>
			</g>
			<g>
				<path fill="#FFFFFF" d="M58.9,37.6c1,1,1.3,2.3,1.1,3.9l0,0L58.9,48c-0.1,0.7-0.4,1.4-0.7,2c-0.4,0.7-0.8,1.2-1.4,1.7
					c-0.6,0.5-1.2,0.9-1.9,1.2c-0.7,0.3-1.4,0.5-2.1,0.5l-10.3,0.5l5.2-31.3L58,22.1c0.7,0,1.4,0.1,1.9,0.3c0.6,0.2,1.1,0.6,1.5,1
					c0.4,0.4,0.7,1,0.8,1.6c0.2,0.6,0.2,1.3,0.1,2l-1.1,6.5c-0.1,0.8-0.4,1.5-0.8,2.2C60,36.5,59.5,37.1,58.9,37.6z M53.7,48.2
					l1.3-7.8l-5.2,0.2l-1.3,7.8L53.7,48.2z M55.9,35.1l1.3-7.8L52,27.5l-1.3,7.8L55.9,35.1z"/>
				<path fill="#FFFFFF" d="M72.8,52.5l-12.3,0.5l5.2-31.3l5.2-0.2l-4.4,26.1l5.2-0.2l1.9-0.1L72.8,52.5z"/>
				<path fill="#FFFFFF" d="M94.8,25.7l-3.5,20.9c-0.1,0.7-0.4,1.4-0.7,2c-0.4,0.7-0.8,1.2-1.4,1.7c-0.5,0.5-1.2,0.9-1.8,1.2
					c-0.7,0.3-1.4,0.5-2.1,0.5l-5.2,0.2c-0.7,0-1.4-0.1-2-0.3c-0.6-0.2-1.1-0.6-1.4-1c-0.4-0.4-0.7-1-0.8-1.6
					c-0.2-0.6-0.2-1.3-0.1-2l3.5-20.9c0.1-0.7,0.4-1.4,0.7-2c0.4-0.7,0.8-1.2,1.4-1.7c0.5-0.5,1.1-0.9,1.8-1.2
					c0.7-0.3,1.4-0.5,2.1-0.5l5.2-0.2c0.7,0,1.4,0.1,1.9,0.3c0.6,0.2,1.1,0.6,1.5,1c0.4,0.4,0.7,1,0.8,1.6
					C94.8,24.3,94.9,24.9,94.8,25.7z M86.1,46.8l3.5-20.9l-5.2,0.2L80.9,47L86.1,46.8z"/>
				<path fill="#FFFFFF" d="M111.3,34l-2,11.7c-0.1,0.7-0.4,1.4-0.7,2.1c-0.4,0.6-0.8,1.2-1.4,1.7c-0.6,0.5-1.2,0.9-1.9,1.2
					c-0.7,0.3-1.4,0.5-2.1,0.5l-5.2,0.2c-0.7,0-1.4-0.1-1.9-0.3c-0.6-0.2-1.1-0.6-1.5-1c-0.4-0.4-0.7-1-0.8-1.6
					c-0.2-0.6-0.2-1.3-0.1-2l3.5-20.9c0.1-0.7,0.4-1.4,0.7-2c0.4-0.7,0.8-1.2,1.4-1.7c0.5-0.5,1.2-0.9,1.8-1.2
					c0.7-0.3,1.4-0.5,2.1-0.5l5.2-0.2c0.7,0,1.4,0.1,1.9,0.3c0.6,0.2,1.1,0.6,1.5,1c0.4,0.4,0.7,1,0.8,1.6s0.2,1.3,0.1,2l-0.7,3.9
					L107,29l0.7-3.9l-5.2,0.2L99,46.2l5.2-0.2l1.1-6.5l-1.9,0.1l0.9-5.2L111.3,34z"/>
				<path fill="#FFFFFF" d="M129.3,33.2l-2,11.7c-0.1,0.7-0.4,1.4-0.7,2.1c-0.4,0.6-0.8,1.2-1.4,1.7c-0.6,0.5-1.2,0.9-1.9,1.2
					c-0.7,0.3-1.4,0.5-2.1,0.5l-5.2,0.2c-0.7,0-1.4-0.1-1.9-0.3c-0.6-0.2-1.1-0.6-1.5-1c-0.4-0.4-0.7-1-0.8-1.6
					c-0.2-0.6-0.2-1.3-0.1-2l3.5-20.9c0.1-0.7,0.4-1.4,0.7-2c0.4-0.7,0.8-1.2,1.4-1.7c0.5-0.5,1.2-0.9,1.8-1.2
					c0.7-0.3,1.4-0.5,2.1-0.5l5.2-0.2c0.7,0,1.4,0.1,1.9,0.3c0.6,0.2,1.1,0.6,1.5,1c0.4,0.4,0.7,1,0.8,1.6c0.2,0.6,0.2,1.3,0.1,2
					l-0.7,3.9l-5.2,0.2l0.7-3.9l-5.2,0.2L117,45.4l5.2-0.2l1.1-6.5l-1.9,0.1l0.9-5.2L129.3,33.2z"/>
				<path fill="#FFFFFF" d="M142.1,44.3l-0.9,5.2l-7.1,0.3c-0.7,0-1.4-0.1-1.9-0.3c-0.6-0.2-1.1-0.6-1.5-1c-0.4-0.4-0.7-1-0.8-1.6
					c-0.2-0.6-0.2-1.3-0.1-2l2.4-14.4l1.1-6.5c0.1-0.7,0.4-1.4,0.7-2s0.8-1.2,1.4-1.7c0.5-0.5,1.2-0.9,1.8-1.2
					c0.7-0.3,1.4-0.5,2.1-0.5l5.2-0.2l1.9-0.1l-0.9,5.2l-7.1,0.3l-1.3,7.8l5.2-0.2l1.9-0.1l-0.9,5.3l-7.1,0.3l-1.3,7.8l5.2-0.2
					L142.1,44.3z"/>
				<path fill="#FFFFFF" d="M159.9,33.1c0.5,0.5,0.8,1,1,1.7c0.2,0.7,0.2,1.4,0.1,2.2l-2,11.7l-5.2,0.2l2-11.7
					c0.1-0.4,0-0.7-0.2-0.9c-0.2-0.2-0.5-0.3-0.8-0.3l-3.9,0.2l-2.2,13l-5.2,0.2l5.2-31.3l10.3-0.5c0.7,0,1.4,0.1,1.9,0.3
					c0.6,0.2,1.1,0.6,1.5,1c0.4,0.4,0.7,1,0.8,1.6c0.2,0.6,0.2,1.3,0.1,2l-1.1,6.5c-0.1,0.8-0.4,1.5-0.8,2.2
					C161.1,32,160.6,32.6,159.9,33.1z M157,30.7l1.3-7.8l-5.2,0.2l-1.3,7.8L157,30.7z"/>
				<path fill="#FFFFFF" d="M173.7,37.7l-9-7.4l1.3-7.8c0.1-0.7,0.4-1.4,0.7-2c0.4-0.7,0.8-1.2,1.4-1.7c0.5-0.5,1.1-0.9,1.8-1.2
					c0.7-0.3,1.4-0.5,2.1-0.5l5.2-0.2c0.7,0,1.4,0.1,1.9,0.3c0.6,0.2,1.1,0.6,1.5,1s0.7,1,0.8,1.6c0.2,0.6,0.2,1.3,0.1,2l-0.7,3.9
					l-5.2,0.2l0.7-3.9l-5.2,0.2l-0.9,5.2l9,7.4l-1.3,7.8c-0.1,0.7-0.4,1.4-0.7,2.1c-0.4,0.6-0.8,1.2-1.4,1.7
					c-0.5,0.5-1.2,0.9-1.8,1.2c-0.7,0.3-1.4,0.5-2.1,0.5l-5.2,0.2c-0.7,0-1.4-0.1-2-0.3s-1.1-0.6-1.4-1c-0.4-0.4-0.7-1-0.8-1.6
					c-0.2-0.6-0.2-1.3-0.1-2l0.7-3.9l5.2-0.2l-0.7,3.9l5.2-0.2L173.7,37.7z"/>
				<path fill="#FFFFFF" d="M206.9,29.8l-2,11.7c-0.1,0.7-0.4,1.4-0.7,2.1c-0.4,0.6-0.8,1.2-1.4,1.7s-1.2,0.9-1.9,1.2
					c-0.7,0.3-1.4,0.5-2.1,0.5l-5.2,0.2c-0.7,0-1.4-0.1-1.9-0.3c-0.6-0.2-1.1-0.6-1.5-1c-0.4-0.4-0.7-1-0.8-1.6
					c-0.2-0.6-0.2-1.3-0.1-2l3.5-20.9c0.1-0.7,0.4-1.4,0.7-2c0.4-0.7,0.8-1.2,1.4-1.7c0.5-0.5,1.2-0.9,1.8-1.2
					c0.7-0.3,1.4-0.5,2.1-0.5l5.2-0.2c0.7,0,1.4,0.1,1.9,0.3c0.6,0.2,1.1,0.6,1.5,1c0.4,0.4,0.7,1,0.8,1.6c0.2,0.6,0.2,1.3,0.1,2
					l-0.7,3.9l-5.2,0.2l0.7-3.9l-5.2,0.2L194.5,42l5.2-0.2l1.1-6.5l-1.9,0.1l0.9-5.2L206.9,29.8z"/>
				<path fill="#FFFFFF" d="M216.9,15.1l-5.2,31.3l-5.2,0.2l5.2-31.3L216.9,15.1z"/>
				<path fill="#FFFFFF" d="M235,14.3l-10.4,31.5l-5.2,0.2l0.1-31.1l5.2-0.2l0,15.1l5.1-15.4L235,14.3z"/>
				<path fill="#FFFFFF" d="M245.2,39.7l-0.9,5.2l-7.1,0.3c-0.7,0-1.4-0.1-1.9-0.3c-0.6-0.2-1.1-0.6-1.5-1c-0.4-0.4-0.7-1-0.8-1.6
					c-0.2-0.6-0.2-1.3-0.1-2l2.4-14.4l1.1-6.5c0.1-0.7,0.4-1.4,0.7-2c0.4-0.7,0.8-1.2,1.4-1.7c0.5-0.5,1.2-0.9,1.8-1.2
					c0.7-0.3,1.4-0.5,2.1-0.5l5.2-0.2l1.9-0.1l-0.9,5.2l-7.1,0.3l-1.3,7.8l5.2-0.2l1.9-0.1l-0.9,5.3l-7.1,0.3l-1.3,7.8l5.2-0.2
					L245.2,39.7z"/>
			</g>
			<g>
				<path fill="#002F68" d="M58,36.7c1,1,1.3,2.3,1.1,3.9l0,0L58,47.1c-0.1,0.7-0.4,1.4-0.7,2c-0.4,0.7-0.8,1.2-1.4,1.7
					c-0.6,0.5-1.2,0.9-1.9,1.2c-0.7,0.3-1.4,0.5-2.1,0.5L41.6,53l5.2-31.3l10.3-0.5c0.7,0,1.4,0.1,1.9,0.3c0.6,0.2,1.1,0.6,1.5,1
					c0.4,0.4,0.7,1,0.8,1.6c0.2,0.6,0.2,1.3,0.1,2l-1.1,6.5c-0.1,0.8-0.4,1.5-0.8,2.2C59.2,35.6,58.7,36.2,58,36.7z M52.8,47.3
					l1.3-7.8L49,39.8l-1.3,7.8L52.8,47.3z M55,34.3l1.3-7.8l-5.2,0.2l-1.3,7.8L55,34.3z"/>
				<path fill="#002F68" d="M71.9,51.7l-12.3,0.5l5.2-31.3l5.2-0.2l-4.4,26.1l5.2-0.2l1.9-0.1L71.9,51.7z"/>
				<path fill="#002F68" d="M93.9,24.8l-3.5,20.9c-0.1,0.7-0.4,1.4-0.7,2c-0.4,0.7-0.8,1.2-1.4,1.7c-0.5,0.5-1.2,0.9-1.8,1.2
					c-0.7,0.3-1.4,0.5-2.1,0.5l-5.2,0.2c-0.7,0-1.4-0.1-2-0.3c-0.6-0.2-1.1-0.6-1.4-1c-0.4-0.4-0.7-1-0.8-1.6
					c-0.2-0.6-0.2-1.3-0.1-2l3.5-20.9c0.1-0.7,0.4-1.4,0.7-2c0.4-0.7,0.8-1.2,1.4-1.7c0.5-0.5,1.1-0.9,1.8-1.2
					c0.7-0.3,1.4-0.5,2.1-0.5l5.2-0.2c0.7,0,1.4,0.1,1.9,0.3c0.6,0.2,1.1,0.6,1.5,1c0.4,0.4,0.7,1,0.8,1.6
					C94,23.4,94,24.1,93.9,24.8z M85.2,45.9L88.7,25l-5.2,0.2l-3.5,20.9L85.2,45.9z"/>
				<path fill="#002F68" d="M110.4,33.1l-2,11.7c-0.1,0.7-0.4,1.4-0.7,2.1s-0.8,1.2-1.4,1.7c-0.6,0.5-1.2,0.9-1.9,1.2
					c-0.7,0.3-1.4,0.5-2.1,0.5l-5.2,0.2c-0.7,0-1.4-0.1-1.9-0.3c-0.6-0.2-1.1-0.6-1.5-1c-0.4-0.4-0.7-1-0.8-1.6
					c-0.2-0.6-0.2-1.3-0.1-2l3.5-20.9c0.1-0.7,0.4-1.4,0.7-2c0.4-0.7,0.8-1.2,1.4-1.7c0.5-0.5,1.2-0.9,1.8-1.2
					c0.7-0.3,1.4-0.5,2.1-0.5l5.2-0.2c0.7,0,1.4,0.1,1.9,0.3c0.6,0.2,1.1,0.6,1.5,1c0.4,0.4,0.7,1,0.8,1.6s0.2,1.3,0.1,2l-0.7,3.9
					l-5.2,0.2l0.7-3.9l-5.2,0.2l-3.5,20.9l5.2-0.2l1.1-6.5l-1.9,0.1l0.9-5.2L110.4,33.1z"/>
				<path fill="#002F68" d="M128.5,32.3l-2,11.7c-0.1,0.7-0.4,1.4-0.7,2.1s-0.8,1.2-1.4,1.7c-0.6,0.5-1.2,0.9-1.9,1.2
					c-0.7,0.3-1.4,0.5-2.1,0.5l-5.2,0.2c-0.7,0-1.4-0.1-1.9-0.3c-0.6-0.2-1.1-0.6-1.5-1c-0.4-0.4-0.7-1-0.8-1.6
					c-0.2-0.6-0.2-1.3-0.1-2l3.5-20.9c0.1-0.7,0.4-1.4,0.7-2c0.4-0.7,0.8-1.2,1.4-1.7c0.5-0.5,1.2-0.9,1.8-1.2
					c0.7-0.3,1.4-0.5,2.1-0.5l5.2-0.2c0.7,0,1.4,0.1,1.9,0.3c0.6,0.2,1.1,0.6,1.5,1c0.4,0.4,0.7,1,0.8,1.6c0.2,0.6,0.2,1.3,0.1,2
					l-0.7,3.9l-5.2,0.2l0.7-3.9l-5.2,0.2l-3.5,20.9l5.2-0.2l1.1-6.5l-1.9,0.1l0.9-5.2L128.5,32.3z"/>
				<path fill="#002F68" d="M141.3,43.4l-0.9,5.2l-7.1,0.3c-0.7,0-1.4-0.1-1.9-0.3c-0.6-0.2-1.1-0.6-1.5-1c-0.4-0.4-0.7-1-0.8-1.6
					s-0.2-1.3-0.1-2l2.4-14.3l1.1-6.5c0.1-0.7,0.4-1.4,0.7-2s0.8-1.2,1.4-1.7c0.5-0.5,1.2-0.9,1.8-1.2c0.7-0.3,1.4-0.5,2.1-0.5
					l5.2-0.2l1.9-0.1l-0.9,5.2l-7.1,0.3l-1.3,7.8l5.2-0.2l1.9-0.1l-0.9,5.3l-7.1,0.3l-1.3,7.8l5.2-0.2L141.3,43.4z"/>
				<path fill="#002F68" d="M159.1,32.2c0.5,0.5,0.8,1,1,1.7s0.2,1.4,0.1,2.2l-2,11.7l-5.2,0.2l2-11.7c0.1-0.4,0-0.7-0.2-0.9
					s-0.5-0.3-0.8-0.3l-3.9,0.2l-2.2,13l-5.2,0.2l5.2-31.3l10.3-0.5c0.7,0,1.4,0.1,1.9,0.3c0.6,0.2,1.1,0.6,1.5,1
					c0.4,0.4,0.7,1,0.8,1.6c0.2,0.6,0.2,1.3,0.1,2l-1.1,6.5c-0.1,0.8-0.4,1.5-0.8,2.2C160.3,31.1,159.7,31.7,159.1,32.2z
					 M156.1,29.8l1.3-7.8l-5.2,0.2l-1.3,7.8L156.1,29.8z"/>
				<path fill="#002F68" d="M172.8,36.9l-9-7.4l1.3-7.8c0.1-0.7,0.4-1.4,0.7-2c0.4-0.7,0.8-1.2,1.4-1.7c0.5-0.5,1.1-0.9,1.8-1.2
					c0.7-0.3,1.4-0.5,2.1-0.5l5.2-0.2c0.7,0,1.4,0.1,1.9,0.3c0.6,0.2,1.1,0.6,1.5,1c0.4,0.4,0.7,1,0.8,1.6c0.2,0.6,0.2,1.3,0.1,2
					l-0.7,3.9l-5.2,0.2l0.7-3.9l-5.2,0.2l-0.9,5.2l9,7.4l-1.3,7.8c-0.1,0.7-0.4,1.4-0.7,2.1c-0.4,0.6-0.8,1.2-1.4,1.7
					c-0.5,0.5-1.2,0.9-1.8,1.2c-0.7,0.3-1.4,0.5-2.1,0.5l-5.2,0.2c-0.7,0-1.4-0.1-2-0.3c-0.6-0.2-1.1-0.6-1.4-1
					c-0.4-0.4-0.7-1-0.8-1.6c-0.2-0.6-0.2-1.3-0.1-2l0.7-3.9l5.2-0.2l-0.7,3.9l5.2-0.2L172.8,36.9z"/>
				<path fill="#002F68" d="M206,28.9l-2,11.7c-0.1,0.7-0.4,1.4-0.7,2.1s-0.8,1.2-1.4,1.7c-0.6,0.5-1.2,0.9-1.9,1.2
					c-0.7,0.3-1.4,0.5-2.1,0.5l-5.2,0.2c-0.7,0-1.4-0.1-1.9-0.3c-0.6-0.2-1.1-0.6-1.5-1c-0.4-0.4-0.7-1-0.8-1.6
					c-0.2-0.6-0.2-1.3-0.1-2l3.5-20.9c0.1-0.7,0.4-1.4,0.7-2c0.4-0.7,0.8-1.2,1.4-1.7c0.5-0.5,1.2-0.9,1.8-1.2
					c0.7-0.3,1.4-0.5,2.1-0.5l5.2-0.2c0.7,0,1.4,0.1,1.9,0.3c0.6,0.2,1.1,0.6,1.5,1c0.4,0.4,0.7,1,0.8,1.6c0.2,0.6,0.2,1.3,0.1,2
					l-0.7,3.9l-5.2,0.2l0.7-3.9l-5.2,0.2l-3.5,20.9l5.2-0.2l1.1-6.5l-1.9,0.1l0.9-5.2L206,28.9z"/>
				<path fill="#002F68" d="M216.1,14.2l-5.2,31.3l-5.2,0.2l5.2-31.3L216.1,14.2z"/>
				<path fill="#002F68" d="M234.1,13.4l-10.4,31.5l-5.2,0.2l0.1-31.1l5.2-0.2l0,15.1l5.1-15.4L234.1,13.4z"/>
				<path fill="#002F68" d="M244.3,38.9l-0.9,5.2l-7.1,0.3c-0.7,0-1.4-0.1-1.9-0.3s-1.1-0.6-1.5-1c-0.4-0.4-0.7-1-0.8-1.6
					c-0.2-0.6-0.2-1.3-0.1-2l2.4-14.3l1.1-6.5c0.1-0.7,0.4-1.4,0.7-2c0.4-0.7,0.8-1.2,1.4-1.7c0.5-0.5,1.2-0.9,1.8-1.2
					c0.7-0.3,1.4-0.5,2.1-0.5l5.2-0.2l1.9-0.1l-0.9,5.2l-7.1,0.3l-1.3,7.8l5.2-0.2l1.9-0.1l-0.9,5.3l-7.1,0.3l-1.3,7.8l5.2-0.2
					L244.3,38.9z"/>
			</g>
		</g>
		<g>
			<g>
				<path fill="#EF7575" d="M30,37.6C30,37.6,29.9,37.6,30,37.6L2.3,35.7c-0.7,0-1.3-0.7-1.2-1.4c0-0.7,0.7-1.2,1.4-1.2L30.1,35
					c0.7,0,1.3,0.7,1.2,1.4C31.2,37.1,30.7,37.6,30,37.6z"/>
			</g>
			<g>
				<path fill="#002F68" d="M17.2,62.5c-0.4,0-0.7-0.2-1-0.4c-0.5-0.5-0.4-1.4,0.1-1.8l17.6-15.3c0.5-0.5,1.4-0.4,1.8,0.1
					c0.5,0.5,0.4,1.4-0.1,1.8L18.1,62.1C17.8,62.3,17.5,62.5,17.2,62.5z"/>
			</g>
			<g>
				<path fill="#002F68" d="M36.1,28.3c-0.4,0-0.7-0.2-1-0.4L19.8,10.3c-0.5-0.5-0.4-1.4,0.1-1.8c0.5-0.5,1.4-0.4,1.8,0.1l15.3,17.6
					c0.5,0.5,0.4,1.4-0.1,1.8C36.7,28.2,36.4,28.3,36.1,28.3z"/>
			</g>
		</g>
		<g>
			<g>
				<path fill="#EF7575" d="M264,30.7c-0.7,0-1.2-0.5-1.3-1.2c0-0.7,0.5-1.3,1.2-1.4l27.6-1.9c0.7,0,1.3,0.5,1.4,1.2
					c0,0.7-0.5,1.3-1.2,1.4L264,30.7C264.1,30.7,264,30.7,264,30.7z"/>
			</g>
			<g>
				<path fill="#002F68" d="M276.8,55.5c-0.3,0-0.6-0.1-0.8-0.3L258.4,40c-0.5-0.5-0.6-1.3-0.1-1.8c0.5-0.5,1.3-0.6,1.8-0.1
					l17.6,15.3c0.5,0.5,0.6,1.3,0.1,1.8C277.5,55.4,277.1,55.5,276.8,55.5z"/>
			</g>
			<g>
				<path fill="#002F68" d="M257.9,21.4c-0.3,0-0.6-0.1-0.8-0.3c-0.5-0.5-0.6-1.3-0.1-1.8l15.3-17.6c0.5-0.5,1.3-0.6,1.8-0.1
					c0.5,0.5,0.6,1.3,0.1,1.8l-15.3,17.6C258.6,21.2,258.3,21.4,257.9,21.4z"/>
			</g>
		</g>
	</g>
	<g>
		<path fill="#002F68" d="M43.1,12.8c-0.8,0-1.5-0.6-1.5-1.4c0-0.8,0.6-1.5,1.4-1.6L251.3,1c0.8,0,1.5,0.6,1.6,1.4
			c0,0.8-0.6,1.5-1.4,1.6L43.1,12.8C43.2,12.8,43.1,12.8,43.1,12.8z"/>
	</g>
	<g>
		<path fill="#002F68" d="M43.1,66.3c-0.8,0-1.5-0.4-1.5-1.2c0-0.8,0.6-1.4,1.4-1.4L251.3,55c0.8,0,1.5,0.6,1.6,1.5
			c0,0.8-0.6,1.3-1.4,1.3L43.1,66.3C43.2,66.3,43.1,66.3,43.1,66.3z"/>
	</g>
</g>
</svg>
