<?xml version="1.0" encoding="utf-8"?>
<!-- Generator: Adobe Illustrator 18.1.1, SVG Export Plug-In . SVG Version: 6.00 Build 0)  -->
<!DOCTYPE svg PUBLIC "-//W3C//DTD SVG 1.1//EN" "http://www.w3.org/Graphics/SVG/1.1/DTD/svg11.dtd">
<svg version="1.1" id="Layer_1" xmlns="http://www.w3.org/2000/svg" xmlns:xlink="http://www.w3.org/1999/xlink" x="0px" y="0px"
	 viewBox="0 0 103 67.9" enable-background="new 0 0 103 67.9" xml:space="preserve">
<g>
	<g>
		<path fill="#EF7575" d="M16.3,17c0,0.9-0.2,1.8-0.6,2.6c-0.4,0.8-1,1.4-1.6,2c-0.7,0.6-1.4,1-2.2,1.3c-0.8,0.3-1.5,0.4-2.2,0.4
			C9,23.2,8.6,23.1,8.2,23c-0.4-0.1-0.7-0.2-0.9-0.2c-0.2-0.1-0.4-0.1-0.6-0.2c-0.1,0-0.2,0-0.3,0.1c-0.2,0.1-0.4,0.2-0.7,0.2
			s-0.7-0.1-1-0.2c-0.3-0.1-0.6-0.3-0.9-0.5c-0.2-0.2-0.3-0.4-0.3-0.7c0-0.2,0.1-0.7,0.2-1.6c0.1-0.9,0.2-2,0.3-3.3
			c0.1-1.3,0.3-2.7,0.4-4.1s0.3-2.9,0.4-4.2C4.8,7,4.9,5.9,4.9,4.9C5,4,5.1,3.4,5.1,3.2c0-0.3,0.1-0.6,0.2-0.9
			C5.4,2,5.5,1.7,5.7,1.5C5.9,1.2,6.1,1,6.2,0.9c0.2-0.1,0.3-0.2,0.5-0.2C6.8,0.8,7,0.9,7.3,1c0.3,0.1,0.6,0.3,0.8,0.6
			s0.5,0.5,0.7,0.8C9,2.7,9.1,3,9,3.3C9,3.5,8.9,4,8.8,4.6C8.7,5.2,8.6,5.9,8.4,6.7C8.3,7.5,8.2,8.4,8,9.3c-0.1,0.9-0.3,1.7-0.4,2.5
			c-0.1,0.7-0.3,1.6-0.4,2.6c0.4-0.4,0.8-0.7,1.3-1c0.4-0.2,0.9-0.4,1.4-0.6c0.6-0.2,1.2-0.2,1.8-0.2c0.7,0.1,1.3,0.1,1.8,0.3
			c0.6,0.1,1,0.4,1.4,0.7s0.7,0.7,0.9,1.3C16.2,15.3,16.3,16,16.3,17L16.3,17z M12.5,16.4c0-0.4-0.6-0.5-1.6-0.5
			c-0.5,0-0.9,0.1-1.3,0.3c-0.4,0.2-0.8,0.6-1.2,1.2c-0.4,0.6-0.7,1-0.8,1.4c-0.1,0.4,0.1,0.6,0.8,0.7c0.3,0.1,0.7,0,1.2-0.1
			c0.5-0.1,1-0.3,1.5-0.6c0.5-0.3,0.9-0.6,1.2-1C12.5,17.4,12.6,16.9,12.5,16.4L12.5,16.4z"/>
		<path fill="#EF7575" d="M29.2,18.8c0,0.1-0.2,0.4-0.4,0.9c-0.2,0.5-0.6,1-1.1,1.6c-0.5,0.6-1.2,1.1-2,1.5c-0.8,0.5-1.8,0.7-3,0.7
			c-1.2,0-2.2-0.3-2.9-0.8c-0.8-0.6-1.4-1.3-1.9-2.2c-0.5-0.9-0.8-1.9-1-3c-0.2-1.1-0.3-2.2-0.3-3.3c0-0.7,0-1.6,0.1-2.5
			c0.1-0.9,0.2-1.9,0.4-2.9c0.2-1,0.4-2,0.7-3c0.3-1,0.7-1.9,1.1-2.6c0.4-0.8,1-1.4,1.6-1.9c0.6-0.5,1.3-0.7,2.1-0.7
			c0.7,0,1.3,0.2,1.7,0.5c0.4,0.4,0.7,0.8,1,1.3s0.4,1,0.4,1.5c0.1,0.5,0.1,1,0.1,1.3c0,1.1-0.2,2.4-0.6,3.6
			c-0.4,1.3-0.9,2.5-1.5,3.7C23,13.8,22.4,15,21.8,16c-0.6,1-1.1,1.8-1.4,2.3c0.2,0.8,0.5,1.3,0.9,1.8c0.4,0.4,1,0.6,1.7,0.6
			c0.7,0,1.2-0.1,1.7-0.4c0.5-0.2,0.9-0.5,1.2-0.8c0.3-0.3,0.5-0.6,0.7-0.9c0.2-0.3,0.3-0.5,0.3-0.5c0.2-0.8,0.5-1.3,0.7-1.5
			c0.2-0.2,0.6-0.3,1.1-0.2c0.2,0.1,0.4,0.3,0.5,0.8C29.4,17.7,29.3,18.2,29.2,18.8L29.2,18.8z M22.6,4.3c-0.2,0-0.4,0.1-0.6,0.2
			c-0.2,0.1-0.4,0.4-0.6,0.8c-0.2,0.4-0.4,1-0.5,1.7s-0.3,1.8-0.5,3c-0.1,0.7-0.1,1.3-0.2,2c0,0.7-0.1,1.3-0.1,1.9
			c0.2-0.3,0.4-0.8,0.7-1.2c0.2-0.5,0.5-1,0.7-1.5c0.2-0.5,0.4-1,0.6-1.4c0.2-0.4,0.3-0.8,0.4-1c0.1-0.3,0.2-0.7,0.3-1.2
			c0.1-0.5,0.2-1,0.2-1.5c0-0.5,0-0.9,0-1.3C22.9,4.5,22.8,4.3,22.6,4.3L22.6,4.3z"/>
		<path fill="#EF7575" d="M44.5,13.9c0.1,0.2,0.2,0.4,0.1,0.8c0,0.4-0.2,0.8-0.4,1.3c-0.2,0.5-0.6,0.9-1,1.4c-0.4,0.4-0.9,0.8-1.6,1
			c-0.4,0.1-0.8,0.3-1.4,0.4c-0.5,0.1-1.1,0.2-1.7,0.1c-0.1,0.5-0.4,1-0.8,1.5c-0.4,0.5-0.8,0.9-1.4,1.3c-0.6,0.4-1.2,0.7-1.9,0.9
			c-0.7,0.2-1.5,0.4-2.4,0.4c-0.9,0-1.7-0.1-2.4-0.4c-0.7-0.3-1.2-0.7-1.6-1.2c-0.4-0.5-0.7-1-0.9-1.7c-0.2-0.6-0.3-1.3-0.3-2
			c0-0.6,0.2-1.3,0.5-2c0.3-0.7,0.8-1.3,1.4-1.9c0.6-0.6,1.3-1,2-1.4s1.6-0.5,2.5-0.5c0.6,0,1,0.1,1.4,0.2c0.4,0.1,0.7,0.3,1,0.4
			c0.9,0.5,1.6,1,1.9,1.5c0.2,0.3,0.4,0.6,0.5,0.8c0.1,0.1,0.2,0.3,0.4,0.4c0.1,0.1,0.3,0.3,0.6,0.4c0.2,0.1,0.4,0.1,0.7,0.2
			s0.6,0.1,0.9,0.1c0.3,0,0.6-0.1,0.9-0.2c0.3-0.1,0.5-0.2,0.7-0.4c0.5-0.6,1-1,1.3-1.3S44.3,13.6,44.5,13.9z M35.1,18.2
			c-0.2-0.1-0.4-0.3-0.6-0.5c-0.2-0.2-0.3-0.5-0.5-0.9c0-0.2-0.1-0.4-0.2-0.5c-0.1-0.2-0.1-0.4-0.2-0.6c-0.1,0-0.2,0-0.3,0
			c-0.1,0-0.2,0-0.3,0c-0.1,0-0.3,0.1-0.6,0.2c-0.3,0.1-0.5,0.3-0.8,0.4c-0.3,0.2-0.5,0.4-0.7,0.8c-0.2,0.3-0.3,0.7-0.3,1.1
			c0,0.4,0.1,0.8,0.2,1c0.2,0.2,0.3,0.4,0.6,0.5c0.2,0.1,0.4,0.1,0.6,0.2c0.2,0,0.4,0,0.5,0c0.1,0,0.2,0,0.5,0
			c0.2,0,0.4-0.1,0.7-0.2c0.3-0.1,0.5-0.3,0.7-0.4C34.8,18.8,35,18.5,35.1,18.2L35.1,18.2z"/>
		<path fill="#EF7575" d="M58.7,18.8c-0.3,0.9-0.7,1.6-1.1,2.3c-0.4,0.7-0.8,1.3-1.3,1.8c-0.5,0.5-0.9,1-1.4,1.4
			c-0.5,0.4-1,0.8-1.4,1.2c-0.3,0.2-0.5,0.4-0.8,0.6c-0.2,0.2-0.5,0.3-0.7,0.5c0,0.6-0.1,1.3-0.2,2c-0.1,0.7-0.2,1.5-0.3,2.2
			c-0.1,0.7-0.3,1.4-0.5,2c-0.2,0.6-0.5,1.1-0.9,1.5c-0.8,0.8-1.6,1.3-2.3,1.5c-0.8,0.2-1.4,0.3-1.9,0.4c-0.2,0-0.6-0.1-1.1-0.2
			c-0.5-0.1-1-0.4-1.5-0.8c-0.5-0.4-0.9-0.9-1.3-1.5c-0.4-0.6-0.6-1.4-0.6-2.3c0-0.7,0.1-1.4,0.4-2c0.3-0.6,0.6-1.1,0.9-1.5
			c0.4-0.4,0.7-0.8,1.1-1c0.4-0.3,0.7-0.5,0.9-0.6c0.2-0.1,0.7-0.3,1.4-0.6c0.7-0.3,1.6-0.7,2.5-1.1c0-0.2,0-0.3,0-0.4
			c0-0.2,0-0.5,0.1-0.9c0-0.4,0-0.8,0.1-1.2c-0.8,0.6-1.7,1-2.4,1.2c-0.8,0.3-1.3,0.4-1.7,0.4c-0.3,0-0.7-0.1-1.2-0.2
			c-0.5-0.1-1-0.4-1.5-0.8c-0.5-0.4-0.9-0.9-1.3-1.5c-0.4-0.6-0.6-1.4-0.6-2.4c0-1,0.2-1.8,0.6-2.5c0.4-0.7,0.9-1.3,1.5-1.8
			c0.6-0.5,1.3-0.8,2.1-1c0.8-0.2,1.5-0.3,2.2-0.3c0.6,0,1.2,0.1,1.7,0.2c0.5,0.1,1,0.3,1.3,0.4c0.1-0.5,0.2-0.8,0.4-1.1
			c0.1-0.2,0.4-0.4,0.7-0.4c0.5-0.1,1,0,1.4,0.2c0.4,0.2,0.7,0.5,0.9,0.9c0.2,0.3,0.2,0.7,0.1,1.1c-0.1,0.4-0.3,1-0.5,1.9
			c0,0.1,0,0.3-0.1,0.5c-0.1,0.4-0.2,0.8-0.3,1.1c-0.1,0.5-0.2,1.2-0.2,2.1c0,0.9-0.1,1.8-0.1,2.8c0.6-0.4,1.2-0.7,1.8-1.2
			c0.5-0.4,0.9-0.8,1.2-1.2c0.2-0.4,0.5-0.7,0.8-1.1c0.3-0.3,0.5-0.8,0.8-1.4c0.2-0.4,0.3-0.7,0.4-0.9c0.1-0.2,0.2-0.4,0.3-0.6
			c0.1-0.1,0.2-0.2,0.4-0.3s0.4,0,0.6,0.1c0.1,0,0.2,0.1,0.3,0.3c0.1,0.2,0.2,0.4,0.2,0.6c0,0.2,0.1,0.5,0,0.7
			C58.8,18.3,58.8,18.5,58.7,18.8L58.7,18.8z M49.1,17.2c-0.2-0.1-0.5-0.2-0.8-0.3c-0.3-0.1-0.6-0.1-1-0.1c-0.6,0-1.1,0.1-1.5,0.4
			S45,17.6,44.8,18c-0.3,0.3-0.4,0.7-0.5,1c-0.1,0.4,0,0.6,0.2,0.9c0.2,0.2,0.4,0.4,0.8,0.4c0.4,0,0.8,0,1.3-0.2
			c0.4-0.1,0.8-0.3,1.2-0.6c0.4-0.3,0.7-0.7,0.9-1.1c0.1-0.2,0.2-0.4,0.3-0.6C48.9,17.6,49,17.4,49.1,17.2L49.1,17.2z M48.6,28.3
			c-0.4,0.2-0.8,0.4-1.3,0.5c-0.5,0.2-1,0.4-1.6,0.6c-0.3,0.1-0.6,0.3-0.8,0.6c-0.2,0.3-0.4,0.5-0.5,0.8c-0.1,0.3-0.1,0.6,0,0.9
			c0.1,0.3,0.3,0.6,0.6,0.8c0.3,0.2,0.5,0.3,0.7,0.3c0.2,0,0.4,0,0.6-0.1c0.2-0.1,0.4-0.2,0.5-0.3c0.2-0.1,0.3-0.3,0.4-0.4
			c0.4-0.4,0.7-1,0.9-1.6S48.6,29,48.6,28.3z"/>
		<path fill="#EF7575" d="M73.2,18.8c-0.3,0.9-0.7,1.6-1.1,2.3c-0.4,0.7-0.8,1.3-1.3,1.8c-0.5,0.5-0.9,1-1.4,1.4
			c-0.5,0.4-1,0.8-1.4,1.2c-0.3,0.2-0.5,0.4-0.8,0.6c-0.2,0.2-0.5,0.3-0.7,0.5c0,0.6-0.1,1.3-0.2,2c-0.1,0.7-0.2,1.5-0.3,2.2
			c-0.1,0.7-0.3,1.4-0.5,2c-0.2,0.6-0.5,1.1-0.9,1.5c-0.8,0.8-1.6,1.3-2.3,1.5c-0.8,0.2-1.4,0.3-1.9,0.4c-0.2,0-0.6-0.1-1.1-0.2
			c-0.5-0.1-1-0.4-1.5-0.8c-0.5-0.4-0.9-0.9-1.3-1.5c-0.4-0.6-0.6-1.4-0.6-2.3c0-0.7,0.1-1.4,0.4-2c0.3-0.6,0.6-1.1,0.9-1.5
			c0.4-0.4,0.7-0.8,1.1-1c0.4-0.3,0.7-0.5,0.9-0.6c0.2-0.1,0.7-0.3,1.4-0.6c0.7-0.3,1.6-0.7,2.5-1.1c0-0.2,0-0.3,0-0.4
			c0-0.2,0-0.5,0-0.9c0-0.4,0-0.8,0.1-1.2c-0.8,0.6-1.7,1-2.4,1.2c-0.8,0.3-1.3,0.4-1.7,0.4c-0.3,0-0.7-0.1-1.2-0.2
			c-0.5-0.1-1-0.4-1.5-0.8c-0.5-0.4-0.9-0.9-1.3-1.5c-0.4-0.6-0.6-1.4-0.6-2.4c0-1,0.2-1.8,0.6-2.5c0.4-0.7,0.9-1.3,1.5-1.8
			c0.6-0.5,1.3-0.8,2.1-1c0.8-0.2,1.5-0.3,2.2-0.3c0.6,0,1.2,0.1,1.7,0.2c0.5,0.1,1,0.3,1.3,0.4c0.1-0.5,0.2-0.8,0.4-1.1
			c0.1-0.2,0.4-0.4,0.7-0.4c0.5-0.1,1,0,1.4,0.2c0.4,0.2,0.7,0.5,0.9,0.9c0.2,0.3,0.2,0.7,0.1,1.1c-0.1,0.4-0.3,1-0.5,1.9
			c0,0.1,0,0.3-0.1,0.5c-0.1,0.4-0.2,0.8-0.3,1.1c-0.1,0.5-0.2,1.2-0.2,2.1c0,0.9-0.1,1.8-0.1,2.8c0.6-0.4,1.2-0.7,1.8-1.2
			c0.5-0.4,0.9-0.8,1.2-1.2c0.2-0.4,0.5-0.7,0.8-1.1c0.3-0.3,0.5-0.8,0.8-1.4c0.2-0.4,0.3-0.7,0.4-0.9c0.1-0.2,0.2-0.4,0.3-0.6
			c0.1-0.1,0.2-0.2,0.4-0.3s0.4,0,0.6,0.1c0.1,0,0.2,0.1,0.3,0.3c0.1,0.2,0.2,0.4,0.2,0.6c0,0.2,0.1,0.5,0,0.7
			C73.4,18.3,73.4,18.5,73.2,18.8L73.2,18.8z M63.7,17.2c-0.2-0.1-0.5-0.2-0.8-0.3c-0.3-0.1-0.6-0.1-1-0.1c-0.6,0-1.1,0.1-1.5,0.4
			s-0.8,0.5-1.1,0.9c-0.3,0.3-0.4,0.7-0.5,1c-0.1,0.4,0,0.6,0.2,0.9c0.2,0.2,0.4,0.4,0.8,0.4c0.4,0,0.8,0,1.3-0.2
			c0.4-0.1,0.8-0.3,1.2-0.6c0.4-0.3,0.7-0.7,0.9-1.1c0.1-0.2,0.2-0.4,0.3-0.6C63.5,17.6,63.6,17.4,63.7,17.2L63.7,17.2z M63.2,28.3
			c-0.4,0.2-0.8,0.4-1.3,0.5c-0.5,0.2-1,0.4-1.6,0.6c-0.3,0.1-0.6,0.3-0.8,0.6c-0.2,0.3-0.4,0.5-0.5,0.8c-0.1,0.3-0.1,0.6,0,0.9
			c0.1,0.3,0.3,0.6,0.6,0.8c0.3,0.2,0.5,0.3,0.7,0.3s0.4,0,0.6-0.1c0.2-0.1,0.4-0.2,0.5-0.3c0.2-0.1,0.3-0.3,0.4-0.4
			c0.4-0.4,0.7-1,0.9-1.6C63,29.7,63.1,29,63.2,28.3z"/>
		<path fill="#EF7575" d="M86.7,18.8c-0.2,0.5-0.5,1-1,1.6c-0.5,0.6-1.1,1.1-1.8,1.6c-0.7,0.5-1.6,0.9-2.7,1.3
			c-1,0.3-2.2,0.5-3.5,0.5c-1.3,0-2.4-0.2-3.3-0.5c-0.9-0.3-1.6-0.8-2.2-1.3c-0.5-0.6-0.9-1.2-1.1-2s-0.2-1.6-0.1-2.5
			c0.1-1.1,0.5-1.9,1-2.6c0.5-0.7,1.2-1.2,1.8-1.6s1.3-0.7,2-0.8c0.7-0.1,1.2-0.2,1.6-0.2c0.4,0,0.8,0.1,1.3,0.2
			c0.5,0.1,1,0.3,1.4,0.5s0.8,0.5,1.1,0.9s0.4,0.9,0.4,1.5c0,0.6-0.1,1.2-0.3,1.7c-0.2,0.5-0.5,1-0.9,1.4c-0.4,0.4-0.8,0.7-1.3,1
			c-0.5,0.3-1,0.5-1.5,0.6c-0.8,0.2-1.4,0.3-1.9,0.3c0.2,0.3,0.6,0.5,0.9,0.7c0.4,0.2,0.8,0.3,1.3,0.3c1,0,1.9-0.1,2.7-0.4
			c0.8-0.3,1.5-0.6,2-0.9c0.5-0.4,1-0.7,1.3-1.1c0.3-0.4,0.5-0.6,0.5-0.8c0.2-0.8,0.5-1.3,0.7-1.5c0.2-0.2,0.6-0.3,1.1-0.2
			c0.2,0.1,0.4,0.3,0.5,0.8C87,17.7,86.9,18.2,86.7,18.8z M78.3,16c-0.1-0.2-0.3-0.4-0.5-0.4c-0.3-0.1-0.7,0-1.2,0.2
			c-0.4,0.1-0.8,0.4-1,0.7c-0.2,0.4-0.4,0.7-0.5,1.2c0.3,0.1,0.7,0.1,1.1,0.1c0.4,0,0.8-0.1,1.2-0.3c0.4-0.2,0.7-0.4,0.9-0.7
			C78.3,16.5,78.4,16.2,78.3,16z"/>
		<path fill="#EF7575" d="M99.3,18.8c0,0.2-0.2,0.4-0.4,0.8s-0.4,0.7-0.8,1.1c-0.3,0.4-0.7,0.8-1.1,1.2c-0.4,0.4-0.9,0.7-1.5,0.9
			c-0.5,0.2-1.1,0.3-1.8,0.2c-0.6-0.1-1.3-0.3-2.1-0.7c-0.6-0.4-1.1-0.9-1.4-1.4c-0.3-0.6-0.5-1.1-0.6-1.7c-0.1-0.6-0.2-1.1-0.2-1.6
			c0-0.5,0-0.8,0-1.1c0-0.2-0.1-0.4-0.4-0.4c-0.2-0.1-0.4-0.1-0.7-0.2c-0.3,0-0.6,0-1,0.1c-0.1,0.4-0.2,0.8-0.3,1.3
			c-0.1,0.4-0.2,0.8-0.3,1.2c-0.1,0.4-0.2,0.8-0.4,1.1c-0.3,0.6-0.6,0.9-0.8,0.9c-0.3,0-0.6-0.1-0.9-0.4c-0.2-0.1-0.3-0.3-0.3-0.5
			c0-0.2,0-0.5,0-0.7c0-0.3,0.1-0.5,0.2-0.7c0.1-0.2,0.1-0.4,0.2-0.5c0-0.2,0.1-0.4,0.2-0.6c0.1-0.3,0.2-0.6,0.3-0.9
			c0.1-0.3,0.2-0.7,0.3-1.1c0.1-0.4,0.1-0.7,0.2-1c0-0.4,0-0.8,0-1.2c0-0.4,0-0.8-0.1-1.1c0-0.1,0-0.3,0.1-0.4
			c0.1-0.2,0.2-0.4,0.4-0.5c0.2-0.2,0.4-0.3,0.6-0.4c0.2-0.1,0.4-0.2,0.7-0.1c0.4,0.1,0.8,0.2,1,0.5c0.3,0.3,0.4,0.8,0.6,1.5
			c0,0.3,0.2,0.4,0.5,0.4c0.3,0,0.5,0,0.7,0c0.4,0,0.7,0,0.9,0.1c0.2,0.1,0.5,0.1,0.6,0.2c0.2,0.1,0.4,0.2,0.5,0.3
			c0.2,0.1,0.3,0.3,0.5,0.4c0.4,0.3,0.5,0.8,0.5,1.3c0,0.6-0.1,1.1-0.2,1.5c0,0.2-0.1,0.5-0.1,0.9c0,0.4,0,0.7,0,1.1
			c0.1,0.4,0.2,0.7,0.4,1c0.2,0.3,0.6,0.4,1.1,0.4c0.5,0,0.9-0.1,1.3-0.2c0.3-0.1,0.6-0.3,0.8-0.5c0.2-0.2,0.4-0.4,0.5-0.5
			c0.1-0.2,0.2-0.3,0.2-0.3c0.2-0.8,0.5-1.3,0.7-1.5c0.2-0.2,0.6-0.3,1.1-0.2c0.2,0.1,0.4,0.3,0.5,0.8
			C99.5,17.6,99.5,18.2,99.3,18.8z"/>
	</g>
	<g>
		<g>
			<path fill="#002F68" d="M56.1,65.2H37.9V41h18.1v4.1l2.4-2.7V41c0-1.4-1.1-2.5-2.5-2.5H38c-1.4,0-2.5,1.1-2.5,2.5v24.1
				c0,1.4,1.1,2.5,2.5,2.5H56c1.4,0,2.5-1.1,2.5-2.5v-7.9l-2.4,2.7V65.2L56.1,65.2z"/>
		</g>
		<g>
			<path fill="#002F68" d="M54,45.4c0-0.7-0.5-1.2-1.2-1.2H41.2c-0.7,0-1.2,0.5-1.2,1.2c0,0.7,0.5,1.2,1.2,1.2h11.6
				C53.5,46.6,54,46.1,54,45.4z"/>
		</g>
		<g>
			<path fill="#002F68" d="M52.4,49.3H41.2c-0.7,0-1.2,0.5-1.2,1.2c0,0.7,0.5,1.2,1.2,1.2h9L52.4,49.3z"/>
		</g>
		<g>
			<path fill="#002F68" d="M47.8,54.3h-6.7c-0.7,0-1.2,0.5-1.2,1.2c0,0.7,0.5,1.2,1.2,1.2h5.3L47.8,54.3z"/>
		</g>
		<g>
			<path fill="#002F68" d="M40,60.6c0,0.7,0.5,1.2,1.2,1.2h3.9c0-0.2,0-0.3,0.1-0.4l0.6-2h-4.5C40.5,59.4,40,59.9,40,60.6z"/>
		</g>
		<g>
			<g>
				<path fill="#EF7575" d="M58.1,45.5L49.7,55L49,55.7l4.7,4.2l0.7-0.7l8.4-9.4l0.8-0.8l-4.6-4.2L58.1,45.5z"/>
			</g>
		</g>
		<g>
			<g>
				<polygon fill="#EF7575" points="59.7,43.8 59.3,44.2 64,48.4 64.3,48 65.1,47.1 60.5,42.9 				"/>
			</g>
		</g>
		<g>
			<g>
				<path fill="#EF7575" d="M67.5,43.9c0-0.4-0.2-0.7-0.4-0.9l-2.6-2.4c-0.3-0.2-0.6-0.4-1-0.3c-0.4,0-0.7,0.2-0.9,0.4l-1.6,1.7
					l4.7,4.2l1.6-1.7C67.3,44.6,67.5,44.3,67.5,43.9z"/>
			</g>
		</g>
		<g>
			<g>
				<path fill="#EF7575" d="M47.1,62.5c0.2,0.2,0.5,0.2,0.7,0.1l5.3-2.2l-4.6-4.2l-1.6,5.6C46.8,62.1,46.9,62.4,47.1,62.5z
					 M48.9,57.8l2.7,2.4l-2.1,0.9L48.3,60L48.9,57.8z"/>
			</g>
		</g>
	</g>
</g>
</svg>
