<?xml version="1.0" encoding="utf-8"?>
<!-- Generator: Adobe Illustrator 18.1.1, SVG Export Plug-In . SVG Version: 6.00 Build 0)  -->
<!DOCTYPE svg PUBLIC "-//W3C//DTD SVG 1.1//EN" "http://www.w3.org/Graphics/SVG/1.1/DTD/svg11.dtd">
<svg version="1.1" id="Layer_1" xmlns="http://www.w3.org/2000/svg" xmlns:xlink="http://www.w3.org/1999/xlink" x="0px" y="0px"
	 viewBox="0 0 59.1 17.8" enable-background="new 0 0 59.1 17.8" xml:space="preserve">
<g>
	<path fill="#002F68" d="M21,5v2c-0.8-0.5-1.6-0.8-2.2-0.8c-0.6,0-1.1,0.2-1.5,0.7c-0.4,0.4-0.6,1.1-0.6,1.8c0,0.7,0.2,1.3,0.6,1.7
		c0.4,0.4,0.9,0.6,1.6,0.6c0.6,0,1.3-0.2,2.1-0.7v1.9c-0.9,0.3-1.7,0.5-2.3,0.5c-1.1,0-2-0.4-2.7-1.2c-0.7-0.8-1.1-1.8-1.1-2.9
		c0-1.2,0.4-2.1,1.1-3s1.7-1.2,2.7-1.2C19.4,4.5,20.2,4.7,21,5z"/>
	<path fill="#002F68" d="M22.3,4.6H24v6.3h2.3v1.7h-4V4.6z"/>
	<path fill="#002F68" d="M27.4,4.6h1.7v8h-1.7V4.6z"/>
	<path fill="#002F68" d="M36.5,5v2c-0.8-0.5-1.6-0.8-2.2-0.8c-0.6,0-1.1,0.2-1.5,0.7c-0.4,0.4-0.6,1.1-0.6,1.8
		c0,0.7,0.2,1.3,0.6,1.7c0.4,0.4,0.9,0.6,1.6,0.6c0.6,0,1.3-0.2,2.1-0.7v1.9c-0.9,0.3-1.7,0.5-2.3,0.5c-1.1,0-2-0.4-2.7-1.2
		c-0.7-0.8-1.1-1.8-1.1-2.9c0-1.2,0.4-2.1,1.1-3s1.7-1.2,2.7-1.2C35,4.5,35.7,4.7,36.5,5z"/>
	<path fill="#002F68" d="M37.8,4.6h1.7V8h0l2.6-3.4h2.1l-3,3.8l3.1,4.2h-2l-2.8-3.8h0v3.8h-1.7V4.6z"/>
</g>
<g>
	<line fill="none" stroke="#EF7575" stroke-linecap="round" stroke-miterlimit="10" x1="0.6" y1="8.5" x2="9.2" y2="9.1"/>
	<line fill="none" stroke="#002F68" stroke-linecap="round" stroke-miterlimit="10" x1="5.2" y1="16.8" x2="10.7" y2="12.1"/>
	<line fill="none" stroke="#002F68" stroke-linecap="round" stroke-miterlimit="10" x1="6.4" y1="0.8" x2="11.1" y2="6.2"/>
</g>
<g>
	<line fill="none" stroke="#EF7575" stroke-linecap="round" stroke-miterlimit="10" x1="57.6" y1="8.7" x2="49" y2="9.2"/>
	<line fill="none" stroke="#002F68" stroke-linecap="round" stroke-miterlimit="10" x1="53" y1="17" x2="47.5" y2="12.2"/>
	<line fill="none" stroke="#002F68" stroke-linecap="round" stroke-miterlimit="10" x1="51.9" y1="0.9" x2="47.1" y2="6.4"/>
</g>
</svg>
