<?xml version="1.0" encoding="utf-8"?>
<!-- Generator: Adobe Illustrator 18.1.1, SVG Export Plug-In . SVG Version: 6.00 Build 0)  -->
<!DOCTYPE svg PUBLIC "-//W3C//DTD SVG 1.1//EN" "http://www.w3.org/Graphics/SVG/1.1/DTD/svg11.dtd">
<svg version="1.1" id="Layer_1" xmlns="http://www.w3.org/2000/svg" xmlns:xlink="http://www.w3.org/1999/xlink" x="0px" y="0px"
	 viewBox="0 0 96.7 67.9" enable-background="new 0 0 96.7 67.9" xml:space="preserve">
<g>
	<g>
		<path fill="#002F68" d="M23.8,19.1c0.9,0.8,1.4,1.9,1.4,3.1h0v5.2c0,0.6-0.1,1.1-0.3,1.6c-0.2,0.5-0.5,0.9-0.9,1.3
			c-0.4,0.4-0.8,0.7-1.3,0.9c-0.5,0.2-1,0.3-1.6,0.3h-8.1V6.7h8.1c0.6,0,1.1,0.1,1.6,0.3c0.5,0.2,0.9,0.5,1.3,0.9
			c0.4,0.4,0.7,0.8,0.9,1.3c0.2,0.5,0.3,1,0.3,1.6V16c0,0.6-0.1,1.2-0.4,1.7C24.6,18.3,24.3,18.7,23.8,19.1z M21.1,17v-6.2h-4V17
			H21.1z M21.1,27.4v-6.2h-4v6.2H21.1z"/>
		<path fill="#002F68" d="M37.9,19.1c0.4,0.4,0.8,0.8,1,1.4c0.2,0.5,0.4,1.1,0.4,1.7v9.3h-4.1v-9.3c0-0.3-0.1-0.5-0.3-0.7
			c-0.2-0.2-0.4-0.3-0.7-0.3h-3v10.3h-4V6.7h8.1c0.6,0,1.1,0.1,1.6,0.3c0.5,0.2,0.9,0.5,1.3,0.9c0.4,0.4,0.7,0.8,0.9,1.3
			c0.2,0.5,0.3,1,0.3,1.6V16c0,0.6-0.1,1.2-0.4,1.7C38.7,18.3,38.4,18.7,37.9,19.1z M35.2,17v-6.2h-4V17H35.2z"/>
		<path fill="#002F68" d="M53.5,10.8v20.7h-4.1V21.2h-4v10.3h-4V10.8c0-0.6,0.1-1.1,0.3-1.6c0.2-0.5,0.5-0.9,0.9-1.3
			c0.4-0.4,0.8-0.7,1.3-0.9c0.5-0.2,1-0.3,1.6-0.3h4c0.6,0,1.1,0.1,1.6,0.3c0.5,0.2,0.9,0.5,1.3,0.9c0.4,0.4,0.7,0.8,0.9,1.3
			C53.4,9.7,53.5,10.3,53.5,10.8z M49.4,17v-6.2h-4V17H49.4z"/>
		<path fill="#002F68" d="M67.5,10.8v20.7h-4V10.8h-4v20.7h-4V6.7h4v0.5c0.6-0.4,1.3-0.5,2-0.5h2c0.6,0,1.1,0.1,1.6,0.3
			c0.5,0.2,0.9,0.5,1.3,0.9c0.4,0.4,0.7,0.8,0.9,1.3C67.4,9.7,67.5,10.3,67.5,10.8z"/>
		<path fill="#002F68" d="M81.7,10.8v16.6c0,0.6-0.1,1.1-0.3,1.6c-0.2,0.5-0.5,0.9-0.9,1.3c-0.4,0.4-0.8,0.7-1.3,0.9
			c-0.5,0.2-1,0.3-1.6,0.3h-8.1V6.7h8.1c0.6,0,1.1,0.1,1.6,0.3c0.5,0.2,0.9,0.5,1.3,0.9c0.4,0.4,0.7,0.8,0.9,1.3
			C81.6,9.7,81.7,10.3,81.7,10.8z M77.6,27.4V10.8h-4v16.6H77.6z"/>
	</g>
	<g>
		<g>
			<polygon fill="#EF7575" points="53.9,55.9 56.9,65.9 48.4,59.9 39.8,65.9 42.8,55.9 34.5,49.6 44.9,49.4 48.4,39.5 51.8,49.4 
				62.2,49.6 			"/>
		</g>
		<g>
			<path fill="#EF7575" d="M39.8,66.4c-0.1,0-0.2,0-0.3-0.1c-0.2-0.1-0.2-0.3-0.2-0.5l2.9-9.7l-8-6.1c-0.2-0.1-0.2-0.4-0.2-0.6
				c0.1-0.2,0.3-0.3,0.5-0.3l10.1-0.2l3.3-9.5c0.1-0.2,0.3-0.3,0.5-0.3l0,0c0.2,0,0.4,0.1,0.5,0.3l3.3,9.5l10.1,0.2
				c0.2,0,0.4,0.1,0.5,0.3c0.1,0.2,0,0.4-0.2,0.6l-8,6.1l2.9,9.7c0.1,0.2,0,0.4-0.2,0.5c-0.2,0.1-0.4,0.1-0.6,0l-8.3-5.8l-8.3,5.8
				C40,66.4,39.9,66.4,39.8,66.4z M35.9,50.1l7.2,5.5c0.2,0.1,0.2,0.3,0.2,0.5l-2.6,8.6l7.4-5.2c0.2-0.1,0.4-0.1,0.6,0l7.4,5.2
				l-2.6-8.6c-0.1-0.2,0-0.4,0.2-0.5l7.2-5.4l-9-0.2c-0.2,0-0.4-0.1-0.5-0.3l-3-8.5l-3,8.5c-0.1,0.2-0.3,0.3-0.5,0.3L35.9,50.1z"/>
		</g>
	</g>
</g>
</svg>
