<?xml version="1.0" encoding="utf-8"?>
<!-- Generator: Adobe Illustrator 18.1.1, SVG Export Plug-In . SVG Version: 6.00 Build 0)  -->
<!DOCTYPE svg PUBLIC "-//W3C//DTD SVG 1.1//EN" "http://www.w3.org/Graphics/SVG/1.1/DTD/svg11.dtd">
<svg version="1.1" id="Layer_1" xmlns="http://www.w3.org/2000/svg" xmlns:xlink="http://www.w3.org/1999/xlink" x="0px" y="0px"
	 viewBox="0 0 119.9 67.9" enable-background="new 0 0 119.9 67.9" xml:space="preserve">
<g>
	<g>
		<path fill="#EF7575" d="M17.7,17.8v4.6l-3.5,3.4H7.6l-3.4-3.5V9.6l3.4-3.3h6.9l3.3,3.5v4.2h-5.3v-2.5H9.9v9.2h2.5v-2.8H17.7z
			 M16,19.4h-1.9v1.8l-1.1,1.2H9.3l-1.1-1.2V10.8l1.1-1.1h3.7l1,1.1v1.5H16v-1.9l-2.3-2.4H8.3l-2.4,2.4v11.2l2.4,2.6h5.1l2.5-2.6
			V19.4z"/>
	</g>
	<g>
		<path fill="#EF7575" d="M36,6.3v5.1h-1.3v9.3H36v5.1h-7.8v-5h0.9v-2.3h-2.7v2.3h0.9v5h-7.8v-5.1H21v-9.3h-1.3V6.3h7.8v4.9h-0.9
			v2.1h2.7v-2.1h-0.9V6.3H36z M34.3,7.9H30v1.8h0.7v5.2H25V9.7h0.7V7.9h-4.1v1.8h1.1v12.6h-1.1v1.8h4.1v-1.8H25v-5.7h5.7v5.7H30v1.8
			h4.4v-1.8H33V9.7h1.3V7.9z"/>
	</g>
	<g>
		<path fill="#EF7575" d="M49,6.3l4.3,14.4H55v5.1h-8v-4.9h1.2l-0.3-1.1h-3.6l-0.3,1.1h1.2v4.9h-7.8v-5.1h1.6l4.7-14.4H49z
			 M47.7,7.9h-2.9l-4.6,14.5H39v1.7h4.3v-1.7h-1.4l1.2-3.9H49l1.2,3.9h-1.3v1.7h4.5v-1.7h-1.2L47.7,7.9z M46.3,9.7l2.2,7.3h-4.8
			l2.3-7.3H46.3z M46.1,13.7l-0.7,2h1.3L46.1,13.7z"/>
	</g>
	<g>
		<path fill="#EF7575" d="M72.6,20.7v5.1H65V21h0.4l-1.1-2.5h-1.2V21h1v4.8h-7.9v-5.1h1.3v-9.3h-1.3V6.3h11.6l3.2,3.4v5.5l-1.8,1.8
			l1.7,3.8H72.6z M71,22.4h-1.1l-2.6-5.7l2.1-2.1v-4.2L67,7.9H58v1.8h1.3v12.6H58v1.8h4.6v-1.8h-0.9v-5.4h3.7l2.4,5.4h-1.1v1.8H71
			V22.4z M67.3,10.8v3.1l-1.2,1.2h-4.5V9.7h4.6L67.3,10.8z M65.5,11.4h-2.3v2h2.3V11.4z"/>
	</g>
	<g>
		<path fill="#EF7575" d="M82.5,6.3v5.1h-1.3v9.3h1.3v5.1h-8.3v-5.1h1.3v-9.3h-1.3V6.3H82.5z M80.8,7.9h-4.9v1.8h1.3v12.7h-1.3v1.7
			h4.9v-1.7h-1.3V9.7h1.3V7.9z"/>
	</g>
	<g>
		<path fill="#EF7575" d="M100.3,6.3v7.2h-4.4v-2.1h-0.9v9.3h1.4v5.1h-8.4v-5.1h1.4v-9.3h-0.8v2.1h-4.5V6.3H100.3z M98.7,7.9H85.6
			v3.9h1.5V9.7H91v12.7h-1.3v1.7h5v-1.7h-1.3V9.7h3.9v2.1h1.5V7.9z"/>
	</g>
	<g>
		<path fill="#EF7575" d="M116.7,6.3v5.1h-1.7l-3.6,7.1v2.3h1.3v5.1h-8.4v-5.1h1.3v-2.3l-3.6-7.1h-1.7V6.3h7.6v4.8h-0.6l1.2,2.3
			l1.2-2.3h-0.6V6.3H116.7z M115.1,7.9h-4.2v1.8h0.9l-3.2,6.3l-3.3-6.3h1V7.9h-4.2v1.8h1l4.3,8.2v4.4h-1.3v1.7h5v-1.7h-1.3V18
			l4.3-8.2h1.1V7.9z"/>
	</g>
</g>
<g>
	<g>
		<g>
			<path fill="#002F68" d="M74.8,40.7h-3.6c0.3,0,0.5-0.6,0.7-1c0.5-1,0.6-2.2,0.3-3.3c-0.6-1.8-2.2-2.9-4.2-2.9
				c-0.4,0-0.8,0-1.1,0.1c-1.8,0.4-4.4,1.8-6.1,3.4c0-0.5,0.2-1.1,0.4-1.8c0.5-1.4,1.4-2.2,2.7-2.2c0.5,0,0.8-0.4,0.8-0.8
				c0-0.5-0.4-0.8-0.8-0.8c-1.8,0-3.2,0.9-4,2.6c-0.8-1.7-2.2-2.6-4-2.6c-0.5,0-0.8,0.4-0.8,0.8c0,0.5,0.4,0.8,0.8,0.8
				c2.6,0,3.1,3.1,3.2,4.2c-1.7-1.6-4.3-3.1-6.3-3.6c-0.4-0.1-0.8-0.1-1.2-0.1c-1.9,0-3.6,1.2-4.1,2.9c-0.3,1.1-0.2,2.2,0.3,3.2
				c0.2,0.4,0.5,1,0.7,1h-3.4c-0.5,0-1.2,0.4-1.2,0.9v6.7c0,0.5,0.7,0.4,1.2,0.4h1.8v17.1c0,0.5,0.7,0.9,1.2,0.9h23.7
				c0.5,0,1.1-0.5,1.1-0.9V48.8h1.9c0.5,0,1.1,0,1.1-0.4v-6.7C75.9,41.1,75.3,40.7,74.8,40.7z M67.3,35.3c0.2-0.1,0.5-0.1,0.8-0.1
				c1.2,0,2.2,0.7,2.6,1.7c0.2,0.7,0.2,1.4-0.2,2c-0.3,0.6-0.9,1.1-1.5,1.3c-0.8,0.3-2.9,0.5-4.8,0.5c0,0,0,0,0,0
				c-2.5,0-3.3-0.5-3.4-0.6c0-0.1,0-0.3,0.2-0.6C61.8,38,65.1,35.9,67.3,35.3z M49,37c0.3-1.1,1.3-1.8,2.5-1.8c0.3,0,0.5,0,0.8,0.1
				c2.3,0.6,5.6,2.7,6.4,4.2c0.2,0.3,0.2,0.5,0.2,0.6c-0.1,0.2-0.9,0.6-3.4,0.6c-1.9,0-4-0.3-4.8-0.5c-0.7-0.2-1.2-0.7-1.5-1.3
				C48.9,38.3,48.8,37.6,49,37z M45.9,42.7h13v5H48.1h-2.2V42.7z M48.9,48.8h10v16h-10V48.8L48.9,48.8z M70.9,64.8h-10v-16h10V64.8z
				 M73.9,47.8h-2.1H60.9v-5h13V47.8z"/>
			<path fill="#002F68" d="M71.8,67.3H48.1c-0.7,0-1.7-0.6-1.7-1.4V49.3l-1.5,0c-0.4,0-1.5,0-1.5-0.9v-6.7c0-0.8,1-1.4,1.7-1.4h2.4
				c0,0,0-0.1,0-0.1L47.3,40c-0.6-1.1-0.7-2.4-0.3-3.6c0.6-2,2.4-3.3,4.6-3.3c0.4,0,0.9,0.1,1.3,0.2c1.7,0.4,3.9,1.6,5.5,2.8
				c-0.3-1.1-0.9-2.4-2.4-2.4c-0.7,0-1.3-0.6-1.3-1.3s0.6-1.3,1.3-1.3c1.7,0,3.1,0.7,4,2.1c0.9-1.4,2.3-2.1,4-2.1
				c0.7,0,1.3,0.6,1.3,1.3s-0.6,1.3-1.3,1.3c-1.1,0-1.8,0.6-2.3,1.8c0,0.1-0.1,0.2-0.1,0.4c1.6-1.2,3.7-2.3,5.3-2.6
				c0.4-0.1,0.8-0.1,1.2-0.1c2.2,0,4,1.3,4.6,3.3c0.4,1.2,0.3,2.5-0.3,3.6l-0.1,0.2c0,0,0,0.1,0,0.1h2.5c0.7,0,1.6,0.6,1.6,1.4v6.7
				c0,0.4-0.2,0.7-0.6,0.8c-0.2,0.1-0.5,0.1-0.8,0.1l-0.2-0.5v0.5h-1.4v16.6C73.4,66.6,72.5,67.3,71.8,67.3z M45.1,48.3h2.3v17.6
				c0,0.1,0.4,0.4,0.7,0.4h23.7c0.2,0,0.6-0.3,0.6-0.4V48.3H75c0.2,0,0.3,0,0.4,0v-6.6c0-0.1-0.3-0.4-0.6-0.4h-3.6v-1
				c-0.1,0-0.1,0-0.1,0c0.1-0.1,0.2-0.4,0.3-0.6l0.1-0.2c0.5-0.9,0.5-1.9,0.2-2.9c-0.5-1.6-1.9-2.6-3.7-2.6c-0.3,0-0.7,0-1,0.1
				c-1.8,0.4-4.3,1.8-5.9,3.3l-1,0.9l0.1-1.3c0.1-0.5,0.2-1.2,0.4-1.9c0.6-1.6,1.7-2.5,3.2-2.5c0.2,0,0.3-0.2,0.3-0.3
				c0-0.2-0.2-0.3-0.3-0.3c-1.6,0-2.8,0.8-3.6,2.3l-0.4,0.9l-0.4-0.9c-0.8-1.5-2-2.3-3.6-2.3c-0.2,0-0.3,0.2-0.3,0.3
				c0,0.2,0.2,0.3,0.3,0.3c3.1,0,3.6,3.6,3.7,4.6l0.1,1.3l-0.9-0.9c-1.5-1.5-4.1-3-6.1-3.5c-0.4-0.1-0.7-0.1-1.1-0.1
				c-1.7,0-3.2,1-3.7,2.6c-0.3,1-0.2,2,0.2,2.9l0.1,0.2c0.1,0.2,0.2,0.5,0.3,0.6c0,0-0.1,0-0.1,0v1h-3.4c-0.3,0-0.6,0.2-0.7,0.4v6.6
				c0.1,0,0.2,0,0.5,0H45.1z M71.4,65.3h-11v-17h11V65.3z M61.4,64.3h9v-15h-9V64.3z M59.4,65.3h-11v-17h11V65.3z M49.4,64.3h9v-15
				h-9V64.3z M74.4,48.2h-14v-6h14V48.2z M61.4,47.2h12v-4h-12V47.2z M59.4,48.2h-14v-6h14V48.2z M46.4,47.2h12v-4h-12V47.2z
				 M64.2,41.3c-2.1,0-3.6-0.3-3.9-0.9c-0.1-0.4,0-0.8,0.2-1.1c0.9-1.7,4.3-3.9,6.7-4.5c0.3-0.1,0.6-0.1,0.9-0.1
				c1.5,0,2.6,0.8,3,2.1c0.2,0.8,0.2,1.6-0.2,2.4c-0.4,0.7-1,1.3-1.8,1.5C68.3,41,66.2,41.3,64.2,41.3z M61.3,39.9
				c0.3,0.1,1.1,0.4,2.9,0.4c1.8,0,3.8-0.3,4.6-0.5c0.5-0.2,1-0.5,1.2-1c0.3-0.5,0.3-1.1,0.1-1.6c-0.3-1-1.5-1.6-2.7-1.3
				c-2.1,0.5-5.3,2.6-6.1,4C61.4,39.8,61.4,39.9,61.3,39.9z M55.5,41.3c-2,0-4.1-0.3-4.9-0.6c-0.8-0.3-1.4-0.8-1.8-1.5
				c-0.4-0.7-0.4-1.6-0.2-2.4c0.4-1.3,1.6-2.1,3-2.1c0.3,0,0.6,0,0.9,0.1c2.5,0.6,5.8,2.9,6.7,4.5c0.1,0.3,0.3,0.6,0.2,0.9
				C59.1,40.9,57.6,41.3,55.5,41.3z M51.6,35.7c-1,0-1.8,0.6-2,1.4c-0.2,0.5-0.1,1.1,0.1,1.6c0.3,0.5,0.7,0.9,1.2,1
				c0.8,0.2,2.8,0.5,4.6,0.5c1.7,0,2.6-0.2,2.9-0.4c0,0,0-0.1,0-0.1c-0.8-1.4-3.9-3.4-6.1-4C52,35.8,51.8,35.7,51.6,35.7z"/>
		</g>
	</g>
	<g>
		<g>
			<path fill="#EF7575" d="M71.2,40.8c0,0,0.5-0.6,0.7-1c0.5-1,0.6-2.2,0.3-3.3c-0.6-1.8-2.2-2.9-4.2-2.9c-0.4,0-0.8,0-1.1,0.1
				c-1.8,0.4-4.4,1.8-6.1,3.4c0-0.5,0.2-1.1,0.4-1.8c0.5-1.4,1.4-2.2,2.7-2.2c0.5,0,0.8-0.4,0.8-0.8c0-0.5-0.4-0.8-0.8-0.8
				c-1.8,0-3.2,0.9-4,2.6c-0.8-1.7-2.2-2.6-4-2.6c-0.5,0-0.8,0.4-0.8,0.8c0,0.5,0.4,0.8,0.8,0.8c2.6,0,3.1,3.1,3.2,4.2
				c-1.7-1.6-4.3-3.1-6.3-3.6c-0.4-0.1-0.8-0.1-1.2-0.1c-1.9,0-3.6,1.2-4.1,2.9c-0.3,1.1-0.2,2.2,0.3,3.3c0.2,0.4,0.7,1,0.7,1
				c3.5,2.6,10.6,1.7,10.6,1.7L59,66.8h1.8l-0.1-24.3C60.8,42.5,68.3,43.4,71.2,40.8z M67.3,35.3c0.2-0.1,0.5-0.1,0.8-0.1
				c1.2,0,2.2,0.7,2.6,1.7c0.2,0.7,0.2,1.4-0.2,2c-0.3,0.6-0.9,1.1-1.5,1.3c-0.8,0.3-2.9,0.5-4.8,0.5c0,0,0,0,0,0
				c-2.5,0-3.3-0.5-3.4-0.6c0-0.1,0-0.3,0.2-0.6C61.8,38,65.1,35.9,67.3,35.3z M49,37c0.3-1.1,1.3-1.8,2.5-1.8c0.3,0,0.5,0,0.8,0.1
				c2.3,0.6,5.6,2.7,6.4,4.2c0.2,0.3,0.2,0.5,0.2,0.6c-0.1,0.2-0.9,0.6-3.4,0.6c-1.9,0-4-0.3-4.8-0.5c-0.7-0.2-1.2-0.7-1.5-1.3
				C48.9,38.3,48.8,37.6,49,37z M58.9,42.2v5 M58.9,49.3v16 M60.9,65.3v-16"/>
			<path fill="#EF7575" d="M61.4,67.3h-2.8l0-2h-0.1v-16h0.2l0-2h-0.2v-4.2c-2,0.2-7.3,0.3-10.2-1.9l-0.1-0.1
				C48,41,47.5,40.4,47.3,40c-0.6-1.1-0.7-2.4-0.3-3.6c0.6-2,2.4-3.3,4.6-3.3c0.4,0,0.9,0.1,1.3,0.2c1.7,0.4,3.9,1.6,5.5,2.8
				c-0.3-1.1-0.9-2.4-2.4-2.4c-0.7,0-1.3-0.6-1.3-1.3s0.6-1.3,1.3-1.3c1.7,0,3.1,0.7,4,2.1c0.9-1.4,2.3-2.1,4-2.1
				c0.7,0,1.3,0.6,1.3,1.3s-0.6,1.3-1.3,1.3c-1.1,0-1.8,0.6-2.3,1.8c0,0.1-0.1,0.2-0.1,0.4c1.6-1.2,3.7-2.3,5.3-2.6
				c0.4-0.1,0.8-0.1,1.2-0.1c2.2,0,4,1.3,4.6,3.3c0.4,1.2,0.3,2.5-0.3,3.6c-0.2,0.4-0.7,1.1-0.8,1.1l-0.1,0.1
				c-2.6,2.3-8.4,2.1-10.3,1.9l0,6.2h0.1L61.4,67.3z M59.5,66.3h0.8l-0.1-24.3l0.6,0.1c0.1,0,7.3,0.8,10-1.6
				c0.2-0.2,0.5-0.7,0.7-0.9c0.5-0.9,0.5-1.9,0.2-2.9c-0.5-1.6-1.9-2.6-3.7-2.6c-0.3,0-0.7,0-1,0.1c-1.8,0.4-4.3,1.8-5.9,3.3l-1,0.9
				l0.1-1.3c0.1-0.5,0.2-1.2,0.4-1.9c0.6-1.6,1.7-2.5,3.2-2.5c0.2,0,0.3-0.2,0.3-0.3c0-0.2-0.2-0.3-0.3-0.3c-1.6,0-2.8,0.8-3.6,2.3
				l-0.4,0.9l-0.4-0.9c-0.8-1.5-2-2.3-3.6-2.3c-0.2,0-0.3,0.2-0.3,0.3c0,0.2,0.2,0.3,0.3,0.3c3.1,0,3.6,3.6,3.7,4.6l0.1,1.3
				l-0.9-0.9c-1.5-1.5-4.1-3-6.1-3.5c-0.4-0.1-0.7-0.1-1.1-0.1c-1.7,0-3.2,1-3.7,2.6c-0.3,1-0.2,2,0.2,2.9c0.1,0.2,0.4,0.7,0.6,0.9
				C52.1,42.8,59,42,59,42l0.6-0.1L59.5,66.3z M64.2,41.3c-2.1,0-3.6-0.3-3.9-0.9c-0.1-0.4,0-0.8,0.2-1.1c0.9-1.7,4.3-3.9,6.7-4.5h0
				c0.3-0.1,0.6-0.1,0.9-0.1c1.5,0,2.6,0.8,3,2.1c0.2,0.8,0.2,1.6-0.2,2.4c-0.4,0.7-1,1.3-1.8,1.5C68.3,41,66.2,41.3,64.2,41.3z
				 M61.3,39.9c0.3,0.1,1.1,0.4,2.9,0.4c1.8,0,3.8-0.3,4.6-0.5c0.5-0.2,1-0.5,1.2-1c0.3-0.5,0.3-1.1,0.1-1.6c-0.3-1-1.5-1.6-2.7-1.3
				l0,0c-2.1,0.5-5.3,2.6-6.1,4C61.4,39.8,61.4,39.9,61.3,39.9z M55.5,41.3c-2,0-4.1-0.3-4.9-0.6c-0.8-0.3-1.4-0.8-1.8-1.5
				c-0.4-0.7-0.4-1.6-0.2-2.4l0,0c0.4-1.3,1.6-2.1,3-2.1c0.3,0,0.6,0,0.9,0.1c2.5,0.6,5.8,2.9,6.7,4.5c0.1,0.3,0.3,0.6,0.2,0.9
				C59.1,40.9,57.6,41.3,55.5,41.3z M49.5,37.1c-0.2,0.5-0.1,1.1,0.1,1.6c0.3,0.5,0.7,0.9,1.2,1c0.8,0.2,2.8,0.5,4.6,0.5
				c1.7,0,2.6-0.2,2.9-0.4c0,0,0-0.1,0-0.1c-0.8-1.4-3.9-3.4-6.1-4C51,35.5,49.9,36.1,49.5,37.1L49.5,37.1z"/>
		</g>
	</g>
</g>
</svg>
