<?xml version="1.0" encoding="utf-8"?>
<!-- Generator: Adobe Illustrator 18.1.1, SVG Export Plug-In . SVG Version: 6.00 Build 0)  -->
<!DOCTYPE svg PUBLIC "-//W3C//DTD SVG 1.1//EN" "http://www.w3.org/Graphics/SVG/1.1/DTD/svg11.dtd">
<svg version="1.1" id="Layer_1" xmlns="http://www.w3.org/2000/svg" xmlns:xlink="http://www.w3.org/1999/xlink" x="0px" y="0px"
	 viewBox="0 0 96.7 67.9" enable-background="new 0 0 96.7 67.9" xml:space="preserve">
<g>
	<g>
		<path fill="#002F68" stroke="#002F68" stroke-width="0.8859" stroke-linejoin="round" stroke-miterlimit="10" d="M22.5,15.5
			c0,4.6-3.4,8.4-7.6,8.4h-4.8V7.2H15C19.2,7.2,22.5,10.9,22.5,15.5z M21,15.5c0-3.6-2.7-6.6-6-6.6h-3.2v13.3H15
			C18.3,22.2,21,19.2,21,15.5z"/>
		<path fill="#002F68" stroke="#002F68" stroke-width="0.8859" stroke-linejoin="round" stroke-miterlimit="10" d="M39.6,15.5
			c0,4.6-3.4,8.3-7.5,8.3c-4.1,0-7.5-3.7-7.5-8.3s3.4-8.3,7.5-8.3C36.3,7.2,39.6,10.9,39.6,15.5z M38.1,15.5c0-3.6-2.7-6.6-5.9-6.6
			s-5.9,2.9-5.9,6.6s2.7,6.6,5.9,6.6S38.1,19.1,38.1,15.5z"/>
		<path fill="#002F68" stroke="#002F68" stroke-width="0.8859" stroke-linejoin="round" stroke-miterlimit="10" d="M52.5,7.2h1.6
			v16.7h-1.3l-9.5-13.4v13.4h-1.6V7.2H43l9.5,13.4V7.2z"/>
		<path fill="#002F68" stroke="#002F68" stroke-width="0.8859" stroke-linejoin="round" stroke-miterlimit="10" d="M71.2,15.5
			c0,4.6-3.4,8.3-7.5,8.3c-4.1,0-7.5-3.7-7.5-8.3s3.4-8.3,7.5-8.3C67.8,7.2,71.2,10.9,71.2,15.5z M69.7,15.5c0-3.6-2.7-6.6-5.9-6.6
			c-3.3,0-5.9,2.9-5.9,6.6s2.7,6.6,5.9,6.6C67,22.1,69.7,19.1,69.7,15.5z"/>
		<path fill="#002F68" stroke="#002F68" stroke-width="0.8859" stroke-linejoin="round" stroke-miterlimit="10" d="M76.8,16.4
			l7.6,7.5h-2.3l-7.2-7.1v7.1h-1.6V7.2h6c2.3,0,4.1,2.1,4.1,4.6c0,2.5-1.9,4.6-4.1,4.6H76.8z M74.9,14.7h4.4c1.4,0,2.6-1.3,2.6-2.9
			c0-1.6-1.2-2.9-2.6-2.9h-4.4V14.7z"/>
	</g>
	<g>
		<g>
			<g>
				<path fill="#EF7575" d="M60.7,41.4L60.7,41.4c0.2-0.5,0.4-1,0.4-1.5v-2.1c0-3.5-5.7-6.4-12.7-6.4c-7,0-12.7,2.8-12.7,6.4
					c0-0.2,0-0.3,0.1-0.5c-2.6,1.2-4.3,2.9-4.3,4.8v2.1c0,2,1.8,3.7,4.6,4.9l0,0c-0.2,0.5-0.4,1-0.4,1.5v2.1c0,0.7,0.3,1.5,0.7,2.1
					c-0.5,0.7-0.7,1.4-0.7,2.1v2.1c0,3.5,5.7,6.4,12.7,6.4c7,0,12.7-2.8,12.7-6.4v-2.1c0-0.8-0.3-1.5-0.8-2.2c0,0,0,0,0,0
					c0.4-0.5,0.6-1,0.7-1.6c2.6-1.2,4.3-2.9,4.3-4.8v-2.1C65.3,44.4,63.5,42.6,60.7,41.4z M48.4,32.6c6.9,0,11.6,2.8,11.6,5.3
					c0,2.5-4.8,5.3-11.6,5.3c-6.9,0-11.6-2.8-11.6-5.3C36.7,35.4,41.5,32.6,48.4,32.6z M32.5,42.1c0-1.2,1.2-2.5,3.2-3.5V40
					c0,3.5,5.7,6.4,12.7,6.4c1,0,2.1-0.1,3-0.2c-1.9,0.7-4.4,1.2-7.3,1.2C37.3,47.4,32.5,44.6,32.5,42.1z M60,56.9
					c0,2.5-4.8,5.3-11.6,5.3c-6.9,0-11.6-2.8-11.6-5.3c0-0.4,0.2-0.8,0.4-1.3c0,0,0,0,0,0c2.1,2,6.4,3.4,11.2,3.4
					c4.9,0,9.1-1.4,11.2-3.4c0,0,0,0,0,0C59.8,56.1,60,56.5,60,56.9z M55.6,54.6c-1.9,0.7-4.4,1.2-7.3,1.2c-6.9,0-11.6-2.8-11.6-5.3
					c0-0.4,0.1-0.7,0.3-1.1c1,0.3,2.2,0.6,3.4,0.8c1.6,2.6,6.4,4.5,12.2,4.5C53.7,54.8,54.7,54.7,55.6,54.6
					C55.6,54.6,55.6,54.6,55.6,54.6z M52.6,51.6c-2.7,0-5.1-0.4-7-1.1c6-0.4,10.7-2.8,11.2-5.8c1.4-0.6,2.6-1.4,3.3-2.3c0,0,0,0,0,0
					c2.6,1,4.1,2.5,4.1,3.9C64.2,48.8,59.5,51.6,52.6,51.6z"/>
			</g>
		</g>
		<g>
			<g>
				<path fill="#EF7575" d="M48.4,65.8c-7.3,0-13.1-3-13.1-6.7v-2.1c0-0.7,0.2-1.4,0.7-2.1c-0.4-0.7-0.7-1.4-0.7-2.1v-2.1
					c0-0.4,0.1-0.8,0.2-1.3C32.7,48,31,46.2,31,44.2v-2.1c0-1.9,1.6-3.7,4.3-5c0.7-3.4,6.3-6,13-6c7.3,0,13.1,3,13.1,6.7V40
					c0,0.4-0.1,0.8-0.2,1.3c2.8,1.3,4.5,3.1,4.5,5.1v2.1c0,1.9-1.6,3.7-4.3,5c-0.1,0.4-0.3,0.8-0.6,1.3c0.5,0.7,0.7,1.4,0.7,2.2v2.1
					C61.4,62.8,55.7,65.8,48.4,65.8z M36.5,55.3c-0.3,0.5-0.5,1.1-0.5,1.6v2.1c0,3.3,5.5,6,12.3,6s12.3-2.7,12.3-6v-2.1
					c0-0.6-0.2-1.3-0.7-1.9l0.3-0.2L60,54.6c0.4-0.5,0.6-1,0.7-1.4l0-0.2l0.2-0.1c2.6-1.1,4.1-2.8,4.1-4.4v-2.1
					c0-1.7-1.6-3.4-4.4-4.5l-0.4-0.2l0.2-0.4c0.2-0.4,0.3-0.9,0.3-1.3v-2.1c0-3.3-5.5-6-12.3-6c-6.3,0-11.6,2.3-12.3,5.3l0,0.2
					c0,0.2,0,0.3,0,0.5h-0.5c-2.4,1.1-3.7,2.7-3.7,4.2v2.1c0,1.7,1.6,3.4,4.4,4.5l0.4,0.2l-0.2,0.4c-0.2,0.4-0.3,0.9-0.3,1.3v2.1
					c0,0.6,0.2,1.3,0.7,1.9l0.2,0.2l0,0l0.6,0.5c2.1,2,6.3,3.3,11,3.3c4.6,0,8.8-1.3,11-3.3l0.3,0.3l0.3-0.2c0.3,0.6,0.5,1,0.5,1.5
					c0,2.7-4.8,5.7-12,5.7s-12-2.9-12-5.7c0-0.4,0.1-0.8,0.4-1.3L36.5,55.3z M37.3,56.3c-0.1,0.2-0.2,0.5-0.2,0.7
					c0,2.1,4.3,4.9,11.3,4.9s11.3-2.9,11.3-4.9c0-0.2-0.1-0.4-0.2-0.7c-2.4,2-6.6,3.2-11.1,3.2C43.8,59.4,39.6,58.2,37.3,56.3z
					 M48.4,56.3c-7.2,0-12-2.9-12-5.7c0-0.4,0.1-0.8,0.4-1.3l0.1-0.3l0.3,0.1c1,0.3,2.2,0.6,3.3,0.8l0.2,0l0.1,0.2
					c1.8,3,8.2,5,14.8,4.2l0.1,0v0.2l0.1,0.5C53.6,55.8,51,56.3,48.4,56.3z M37.2,50c-0.1,0.2-0.1,0.4-0.1,0.6
					c0,2.1,4.3,4.9,11.3,4.9c1.3,0,2.6-0.1,3.8-0.3c-5.5-0.1-10.2-1.9-11.9-4.5C39.2,50.5,38.2,50.2,37.2,50z M52.6,52
					c-2.6,0-5-0.4-7.1-1.2l-1.7-0.6l1.8-0.1c5.8-0.3,10.4-2.6,10.8-5.5l0-0.2l0.2-0.1c1.4-0.6,2.5-1.4,3.2-2.2l0.2-0.2l0.3,0.1
					c2.7,1.1,4.4,2.7,4.4,4.3C64.6,49.1,59.8,52,52.6,52z M47.6,50.7c1.6,0.4,3.3,0.6,5,0.6c7,0,11.3-2.9,11.3-4.9
					c0-1.2-1.4-2.5-3.6-3.5c-0.7,0.8-1.8,1.5-3.1,2.2C56.5,47.8,52.7,50,47.6,50.7z M44.1,47.8c-7.2,0-12-2.9-12-5.7
					c0-1.4,1.2-2.8,3.4-3.9l0.5-0.3v2c0,3.8,7.3,6.8,15.3,5.8l3-0.4l-2.8,1.1C49.4,47.3,46.8,47.8,44.1,47.8z M35.3,39.2
					c-1.5,0.9-2.4,2-2.4,2.9c0,2.1,4.3,4.9,11.3,4.9c1.3,0,2.6-0.1,3.8-0.3c-7.1-0.1-12.6-3-12.6-6.7V39.2z M48.4,43.5
					c-7.2,0-12-2.9-12-5.7s4.8-5.7,12-5.7s12,2.9,12,5.7S55.6,43.5,48.4,43.5z M48.4,32.9c-7,0-11.3,2.9-11.3,4.9s4.3,4.9,11.3,4.9
					s11.3-2.9,11.3-4.9S55.3,32.9,48.4,32.9z"/>
			</g>
		</g>
	</g>
</g>
</svg>
