<?xml version="1.0" encoding="utf-8"?>
<!-- Generator: Adobe Illustrator 18.1.1, SVG Export Plug-In . SVG Version: 6.00 Build 0)  -->
<!DOCTYPE svg PUBLIC "-//W3C//DTD SVG 1.1//EN" "http://www.w3.org/Graphics/SVG/1.1/DTD/svg11.dtd">
<svg version="1.1" id="Layer_1" xmlns="http://www.w3.org/2000/svg" xmlns:xlink="http://www.w3.org/1999/xlink" x="0px" y="0px"
	 viewBox="0 0 59.1 17.8" enable-background="new 0 0 59.1 17.8" xml:space="preserve">
<g>
	<path fill="#002F68" d="M18.6,4.6h5.3v1.7H22v6.3h-1.7V6.3h-1.8V4.6z"/>
	<path fill="#002F68" d="M26.8,4.6h1.3l3.2,8h-1.7L29,11h-3l-0.6,1.6h-1.7L26.8,4.6z M27.5,7.2l-0.9,2.4h1.9L27.5,7.2z"/>
	<path fill="#002F68" d="M32.6,4.6h2.7c0.7,0,1.3,0.2,1.7,0.6c0.4,0.4,0.7,1,0.7,1.7c0,0.5-0.1,0.9-0.3,1.3c-0.2,0.4-0.5,0.7-1,0.9
		c-0.4,0.2-0.8,0.3-1.1,0.3l-1,0v3.1h-1.7V4.6z M34.2,6v2.1h0.7c0.3,0,0.5-0.1,0.7-0.3c0.2-0.2,0.3-0.5,0.3-0.7
		c0-0.3-0.1-0.6-0.3-0.8C35.4,6.1,35,6,34.6,6L34.2,6z"/>
	<path fill="#002F68" d="M38.5,11.7c0-0.3,0.1-0.5,0.3-0.7c0.2-0.2,0.4-0.3,0.7-0.3c0.3,0,0.5,0.1,0.7,0.3c0.2,0.2,0.3,0.4,0.3,0.7
		c0,0.3-0.1,0.5-0.3,0.7c-0.2,0.2-0.4,0.3-0.7,0.3c-0.3,0-0.5-0.1-0.7-0.3C38.6,12.2,38.5,12,38.5,11.7z M38.6,4.6h1.7v5.3h-1.7V4.6
		z"/>
</g>
<g>
	<line fill="none" stroke="#EF7575" stroke-linecap="round" stroke-miterlimit="10" x1="2.1" y1="8.6" x2="10.7" y2="9.2"/>
	<line fill="none" stroke="#002F68" stroke-linecap="round" stroke-miterlimit="10" x1="6.7" y1="16.9" x2="12.2" y2="12.2"/>
	<line fill="none" stroke="#002F68" stroke-linecap="round" stroke-miterlimit="10" x1="7.8" y1="0.8" x2="12.6" y2="6.3"/>
</g>
<g>
	<line fill="none" stroke="#EF7575" stroke-linecap="round" stroke-miterlimit="10" x1="57" y1="8.7" x2="48.5" y2="9.3"/>
	<line fill="none" stroke="#002F68" stroke-linecap="round" stroke-miterlimit="10" x1="52.4" y1="17" x2="47" y2="12.3"/>
	<line fill="none" stroke="#002F68" stroke-linecap="round" stroke-miterlimit="10" x1="51.3" y1="1" x2="46.6" y2="6.4"/>
</g>
</svg>
